<?xml version="1.0" encoding="UTF-8"?>
<svg id="Camada_1" data-name="Camada 1" xmlns="http://www.w3.org/2000/svg" xmlns:xlink="http://www.w3.org/1999/xlink" viewBox="0 0 1244.16 1244.16">
  <defs>
    <style>
      .cls-1 {
        fill: url(#Gradiente_sem_nome_9);
      }

      .cls-2 {
        clip-path: url(#clippath-2);
      }

      .cls-3 {
        fill: #faedf2;
      }

      .cls-4 {
        clip-path: url(#clippath-1);
      }

      .cls-5 {
        clip-path: url(#clippath);
      }
    </style>
    <linearGradient id="Gradiente_sem_nome_9" data-name="Gradiente sem nome 9" x1="0" y1="0" x2="1244.16" y2="1244.16" gradientUnits="userSpaceOnUse">
      <stop offset="0" stop-color="#702e3d"/>
      <stop offset="1" stop-color="#e34e35"/>
    </linearGradient>
    <clipPath id="clippath">
      <path class="cls-3" d="m472.67,579.6c6.53,18.78,22.7,59.4,53.13,103.95,46.21,67.65,104.88,115.24,174.38,141.47,4.47,1.88,77.73,32.18,159.32,32.18,47.26,0,87.66-10.3,120.13-30.62l72.11,47.65c-42.5,68.68-101.62,126.2-171.31,166.58-73.61,42.66-157.74,65.2-243.27,65.2s-169.29-22.45-242.79-64.92c-69.32-40.06-128.24-97.09-170.75-165.19l78.05-37.7c18.08,26.58,49.13,68.57,73.32,82.23l1.14.64,1.3.1c.2.02,5.08.4,13.65.4,32.58,0,116.88-5.56,195.88-57.09l7.33-4.78-7.16-5.03c-.36-.25-36.66-25.89-77.41-66.02-36.78-36.21-84.58-91.73-105.47-152.18,21.82-22.06,45.29-41.58,68.41-56.9m170.31,447.38c81.21,0,158.2-27.83,228.84-82.71l14.53-11.29-18.39.69s-3.72.14-10.05.14c-25.57,0-113.6-2.43-172.77-33.76l-3.33-1.76-3.01,2.26c-1.14.86-114.85,86-170.82,86h-24.04l21.29,11.17c2.28,1.19,56.71,29.26,137.74,29.26m-167.1-456.51c-28.31,17.87-55.51,40.99-78.39,64.47,39.9,121.75,186.24,224.59,186.24,224.59-77.85,50.78-161.06,56.13-192.64,56.13-8.43,0-13.17-.38-13.17-.38-25.15-14.21-59.44-62.62-74.2-84.64l-88.57,42.78c86.5,142.78,242.88,238.52,422.02,238.52s336.22-96.17,422.61-239.5l-80.1-52.93c-36.21,23.82-79.1,31.76-120.17,31.76-82.17,0-157.13-31.76-157.13-31.76-162.72-61.35-219.62-227.13-226.51-249.05h0Zm167.1,450.58c-80.51,0-134.99-28.58-134.99-28.58,58.6,0,174.38-87.19,174.38-87.19,59.65,31.58,146.08,34.45,175.54,34.45,6.55,0,10.28-.14,10.28-.14-81.95,63.67-161.69,81.47-225.21,81.47h0Z"/>
    </clipPath>
    <clipPath id="clippath-1">
      <path class="cls-3" d="m652.7,130.88c84.41,2.67,166.75,27.17,238.48,71.01,71.33,43.6,130.64,105.18,171.48,178.06,2.21,3.99,4.42,8.21,6.56,12.3l.76,1.46c36.43,70.16,54.9,145.61,54.9,224.25s-17.3,149.12-51.43,217.37l-66.23-43.77c13.26-28.76,32.92-76.25,32.27-103.56l-.03-1.31-.58-1.17c-.5-1.01-12.5-25.07-37.77-55.81-23.3-28.34-62.76-67.83-118.38-94.99l-7.85-3.83-.65,8.72c-.03.43-3.4,43.95-16.61,98.68-11.91,49.3-34.44,117.89-74.42,167.09-30.37-6.67-58.92-16.09-85.02-28.07,29.49-35.58,121.02-161.25,92.61-319.5-.45-3.18-6.95-47.39-27.57-99.06-27.27-68.34-66.78-117.21-114.43-141.63l3.91-86.21m387.66,429.67l-1.33-24c-.11-2.06-3.15-51.08-33.49-111.33-27.96-55.52-85.43-131.11-200.44-175.94l-17.14-6.68,10.03,15.43c.61.93,60.79,94.39,64.91,174.19l.19,3.76,3.49,1.42c1.32.54,132.75,54.49,161.46,102.53l12.33,20.64M647.28,124.82s-.23.02-.23.02l-4.35,95.84c117.06,56.6,142.23,238.04,142.23,238.04,30.12,167.44-77.28,298.91-96.29,320.62,29.65,14.36,62.47,25.29,96.82,32.56,81.65-97.36,94.67-271.87,94.67-271.87,105.81,51.67,153.44,148.1,153.44,148.1.67,28.24-22.27,80.83-33.87,105.55l76.03,50.25c34.99-67.76,55.08-144.46,55.08-225.97s-20.26-158.98-55.57-226.98c-2.45-4.68-4.89-9.37-7.39-13.89-82.93-147.97-239.75-248.59-420.57-252.26h0Zm385.84,412.06c-30.06-50.31-164.31-104.97-164.31-104.97-4.25-82.37-65.86-177.11-65.86-177.11,219.25,85.46,230.16,282.08,230.16,282.08h0Z"/>
    </clipPath>
    <clipPath id="clippath-2">
      <path class="cls-3" d="m609.66,131.62l-3.69,81.45c-33.81,2.5-76.26,8.02-97.5,20.16l-1.13.65-.75,1.06c-.65.92-16.19,22.91-31.3,59.75-13.93,33.97-30.01,87.45-27.49,149.29l.36,8.72,7.97-3.55c1.16-.51,116.75-51.38,223.65-51.38,21.86,0,42.09,2.14,60.18,6.35,3.99,12.96,13.21,59.85,13.99,88.05-14.15-3.05-47.34-9.01-90.78-9.01-64.37,0-158.12,13.58-239.34,78.28-2.59,1.91-38.4,28.62-74.06,71.31-47.17,56.46-71.41,114.44-70.26,167.97l-77.31,37.34c-35-68.94-52.74-142.96-52.74-220.11,0-128.07,49.46-249.15,139.23-340.88.89-.89,1.76-1.77,2.62-2.64,1.62-1.65,3.15-3.2,4.91-4.9,6.39-6.25,13.49-12.7,23.02-20.92,4.88-4.23,10.11-8.5,14.99-12.45,79.08-62.84,174.19-98.91,275.46-104.55M235.76,666.13l8.82-16.15c.53-.98,54.19-98.33,122.44-139.86l3.22-1.96-.41-3.74c-.15-1.42-15.1-142.7,13.55-190.77l12.31-20.66-20.5,12.58c-1.76,1.08-43.46,27.03-82.06,82.35-35.58,50.98-74.8,137.46-59.63,259.95l2.26,18.26M615.87,125.38c-107.66,4.6-206.32,43.35-285.35,106.15-5.21,4.22-10.37,8.43-15.18,12.61-7.94,6.85-15.78,13.83-23.28,21.17-2.73,2.62-5.03,5.04-7.58,7.58-87.11,89.01-140.97,210.69-140.97,345.07,0,82.29,20.43,159.72,56.04,227.95l85.98-41.53c-5.81-129.9,141.88-238.23,141.88-238.23,78.55-62.62,169.03-77.06,235.73-77.06,57.04,0,96.69,10.55,96.69,10.55,1.05-28.83-11.41-91.6-15.41-100.52-20.57-5.13-42.48-7.26-64.66-7.26-109.46,0-226.05,51.89-226.05,51.89-4.79-117.65,57.7-205.36,57.7-205.36,22.24-12.71,70.69-17.79,100.23-19.77l4.22-93.22h0ZM239.37,647.14c-28.93-233.52,138.91-336.52,138.91-336.52-30,50.35-14.35,194.44-14.35,194.44-70.46,42.88-124.56,142.08-124.56,142.08h0Z"/>
    </clipPath>
  </defs>
  <rect class="cls-1" x="0" width="1244.16" height="1244.16"/>
  <g>
    <g>
      <path class="cls-3" d="m472.67,579.6c6.53,18.78,22.7,59.4,53.13,103.95,46.21,67.65,104.88,115.24,174.38,141.47,4.47,1.88,77.73,32.18,159.32,32.18,47.26,0,87.66-10.3,120.13-30.62l72.11,47.65c-42.5,68.68-101.62,126.2-171.31,166.58-73.61,42.66-157.74,65.2-243.27,65.2s-169.29-22.45-242.79-64.92c-69.32-40.06-128.24-97.09-170.75-165.19l78.05-37.7c18.08,26.58,49.13,68.57,73.32,82.23l1.14.64,1.3.1c.2.02,5.08.4,13.65.4,32.58,0,116.88-5.56,195.88-57.09l7.33-4.78-7.16-5.03c-.36-.25-36.66-25.89-77.41-66.02-36.78-36.21-84.58-91.73-105.47-152.18,21.82-22.06,45.29-41.58,68.41-56.9m170.31,447.38c81.21,0,158.2-27.83,228.84-82.71l14.53-11.29-18.39.69s-3.72.14-10.05.14c-25.57,0-113.6-2.43-172.77-33.76l-3.33-1.76-3.01,2.26c-1.14.86-114.85,86-170.82,86h-24.04l21.29,11.17c2.28,1.19,56.71,29.26,137.74,29.26m-167.1-456.51c-28.31,17.87-55.51,40.99-78.39,64.47,39.9,121.75,186.24,224.59,186.24,224.59-77.85,50.78-161.06,56.13-192.64,56.13-8.43,0-13.17-.38-13.17-.38-25.15-14.21-59.44-62.62-74.2-84.64l-88.57,42.78c86.5,142.78,242.88,238.52,422.02,238.52s336.22-96.17,422.61-239.5l-80.1-52.93c-36.21,23.82-79.1,31.76-120.17,31.76-82.17,0-157.13-31.76-157.13-31.76-162.72-61.35-219.62-227.13-226.51-249.05h0Zm167.1,450.58c-80.51,0-134.99-28.58-134.99-28.58,58.6,0,174.38-87.19,174.38-87.19,59.65,31.58,146.08,34.45,175.54,34.45,6.55,0,10.28-.14,10.28-.14-81.95,63.67-161.69,81.47-225.21,81.47h0Z"/>
      <g class="cls-5">
        <rect class="cls-3" x="143.52" y="124.65" width="987.29" height="987.29"/>
      </g>
    </g>
    <g>
      <path class="cls-3" d="m652.7,130.88c84.41,2.67,166.75,27.17,238.48,71.01,71.33,43.6,130.64,105.18,171.48,178.06,2.21,3.99,4.42,8.21,6.56,12.3l.76,1.46c36.43,70.16,54.9,145.61,54.9,224.25s-17.3,149.12-51.43,217.37l-66.23-43.77c13.26-28.76,32.92-76.25,32.27-103.56l-.03-1.31-.58-1.17c-.5-1.01-12.5-25.07-37.77-55.81-23.3-28.34-62.76-67.83-118.38-94.99l-7.85-3.83-.65,8.72c-.03.43-3.4,43.95-16.61,98.68-11.91,49.3-34.44,117.89-74.42,167.09-30.37-6.67-58.92-16.09-85.02-28.07,29.49-35.58,121.02-161.25,92.61-319.5-.45-3.18-6.95-47.39-27.57-99.06-27.27-68.34-66.78-117.21-114.43-141.63l3.91-86.21m387.66,429.67l-1.33-24c-.11-2.06-3.15-51.08-33.49-111.33-27.96-55.52-85.43-131.11-200.44-175.94l-17.14-6.68,10.03,15.43c.61.93,60.79,94.39,64.91,174.19l.19,3.76,3.49,1.42c1.32.54,132.75,54.49,161.46,102.53l12.33,20.64M647.28,124.82s-.23.02-.23.02l-4.35,95.84c117.06,56.6,142.23,238.04,142.23,238.04,30.12,167.44-77.28,298.91-96.29,320.62,29.65,14.36,62.47,25.29,96.82,32.56,81.65-97.36,94.67-271.87,94.67-271.87,105.81,51.67,153.44,148.1,153.44,148.1.67,28.24-22.27,80.83-33.87,105.55l76.03,50.25c34.99-67.76,55.08-144.46,55.08-225.97s-20.26-158.98-55.57-226.98c-2.45-4.68-4.89-9.37-7.39-13.89-82.93-147.97-239.75-248.59-420.57-252.26h0Zm385.84,412.06c-30.06-50.31-164.31-104.97-164.31-104.97-4.25-82.37-65.86-177.11-65.86-177.11,219.25,85.46,230.16,282.08,230.16,282.08h0Z"/>
      <g class="cls-4">
        <rect class="cls-3" x="143.52" y="124.65" width="987.29" height="987.29"/>
      </g>
    </g>
    <g>
      <path class="cls-3" d="m609.66,131.62l-3.69,81.45c-33.81,2.5-76.26,8.02-97.5,20.16l-1.13.65-.75,1.06c-.65.92-16.19,22.91-31.3,59.75-13.93,33.97-30.01,87.45-27.49,149.29l.36,8.72,7.97-3.55c1.16-.51,116.75-51.38,223.65-51.38,21.86,0,42.09,2.14,60.18,6.35,3.99,12.96,13.21,59.85,13.99,88.05-14.15-3.05-47.34-9.01-90.78-9.01-64.37,0-158.12,13.58-239.34,78.28-2.59,1.91-38.4,28.62-74.06,71.31-47.17,56.46-71.41,114.44-70.26,167.97l-77.31,37.34c-35-68.94-52.74-142.96-52.74-220.11,0-128.07,49.46-249.15,139.23-340.88.89-.89,1.76-1.77,2.62-2.64,1.62-1.65,3.15-3.2,4.91-4.9,6.39-6.25,13.49-12.7,23.02-20.92,4.88-4.23,10.11-8.5,14.99-12.45,79.08-62.84,174.19-98.91,275.46-104.55M235.76,666.13l8.82-16.15c.53-.98,54.19-98.33,122.44-139.86l3.22-1.96-.41-3.74c-.15-1.42-15.1-142.7,13.55-190.77l12.31-20.66-20.5,12.58c-1.76,1.08-43.46,27.03-82.06,82.35-35.58,50.98-74.8,137.46-59.63,259.95l2.26,18.26M615.87,125.38c-107.66,4.6-206.32,43.35-285.35,106.15-5.21,4.22-10.37,8.43-15.18,12.61-7.94,6.85-15.78,13.83-23.28,21.17-2.73,2.62-5.03,5.04-7.58,7.58-87.11,89.01-140.97,210.69-140.97,345.07,0,82.29,20.43,159.72,56.04,227.95l85.98-41.53c-5.81-129.9,141.88-238.23,141.88-238.23,78.55-62.62,169.03-77.06,235.73-77.06,57.04,0,96.69,10.55,96.69,10.55,1.05-28.83-11.41-91.6-15.41-100.52-20.57-5.13-42.48-7.26-64.66-7.26-109.46,0-226.05,51.89-226.05,51.89-4.79-117.65,57.7-205.36,57.7-205.36,22.24-12.71,70.69-17.79,100.23-19.77l4.22-93.22h0ZM239.37,647.14c-28.93-233.52,138.91-336.52,138.91-336.52-30,50.35-14.35,194.44-14.35,194.44-70.46,42.88-124.56,142.08-124.56,142.08h0Z"/>
      <g class="cls-2">
        <rect class="cls-3" x="143.52" y="124.65" width="987.29" height="987.29"/>
      </g>
    </g>
  </g>
</svg>