<?xml version="1.0" encoding="UTF-8"?>
<svg id="Camada_1" data-name="Camada 1" xmlns="http://www.w3.org/2000/svg" viewBox="0 0 1556.3 578.59">
  <defs>
    <style>
      .cls-1 {
        fill: #462324;
      }

      .cls-2 {
        fill: #e34e35;
      }
    </style>
  </defs>
  <g>
    <path class="cls-1" d="m76.18,429.88h37.22c6.2,0,11.31,2.02,15.35,6.05,3.72,3.72,5.59,8.68,5.59,14.88,0,4.96-1.71,9.15-5.12,12.56-1.85,1.86-4.18,3.26-6.98,4.19,3.72,1.24,6.67,2.95,8.84,5.12,3.72,3.72,5.59,8.38,5.59,13.96,0,6.82-2.33,12.56-6.98,17.21-3.72,3.72-9.3,5.58-16.75,5.58h-36.75v-79.54Zm10.7,8.84v24.65h25.12c3.1,0,5.73-1.08,7.9-3.25,2.48-2.48,3.72-5.73,3.72-9.77,0-3.41-1.24-6.35-3.72-8.84-1.85-1.86-4.18-2.79-6.98-2.79h-26.05Zm0,33.49v28.38h23.72c4.65,0,8.21-1.24,10.7-3.72,2.79-2.79,4.19-6.2,4.19-10.23,0-4.34-1.24-7.75-3.72-10.24-2.79-2.79-6.51-4.19-11.17-4.19h-23.72Z"/>
    <path class="cls-1" d="m202.9,456.4v10.24c-1.24-.31-2.95-.46-5.12-.46-4.66,0-9,2.02-13.03,6.04-3.42,3.42-5.74,6.98-6.98,10.7v26.51h-9.3v-52.09h9.3v13.02c1.55-2.47,3.25-4.65,5.12-6.51,4.96-4.96,11.63-7.45,20-7.45Z"/>
    <path class="cls-1" d="m233.78,461.52c3.42-3.41,8.38-5.12,14.89-5.12,7.75,0,13.33,1.71,16.74,5.12,3.1,3.1,4.65,6.67,4.65,10.69v29.31c0,3.42,1.24,6.05,3.72,7.9h-11.17c-1.24-1.23-1.86-3.25-1.86-6.04-4.65,4.65-10.55,6.98-17.68,6.98-5.89,0-10.39-1.55-13.48-4.65-2.8-2.79-4.19-6.05-4.19-9.77,0-4.34,1.39-7.91,4.19-10.7,3.09-3.1,7.44-5.12,13.02-6.05,3.72-.62,6.98-1.39,9.77-2.33,4.03-.93,6.82-1.86,8.38-2.79,0-2.48-.93-4.65-2.79-6.51-1.86-1.86-4.5-2.79-7.91-2.79-4.34,0-7.44.93-9.3,2.79-1.24,1.24-2.17,2.95-2.79,5.12h-10.23c.93-4.34,2.94-8.06,6.04-11.16Zm26.98,21.4c-1.86.63-3.57,1.09-5.12,1.4-5.28,1.24-9.3,2.17-12.09,2.79-2.49.63-4.35,1.55-5.59,2.79-1.55,1.55-2.33,3.25-2.33,5.12,0,2.17.77,4.03,2.33,5.59.93.93,2.94,1.39,6.05,1.39,5.27,0,9.6-1.7,13.03-5.12,2.16-2.16,3.41-3.72,3.72-4.65v-9.3Z"/>
    <path class="cls-1" d="m312.12,509.42h-9.3v-52.09h9.3v9.3c5.58-6.82,11.47-10.24,17.68-10.24s11.17,1.86,14.88,5.59c2.48,2.49,3.72,5.43,3.72,8.84v38.6h-9.3v-35.81c0-2.79-.93-5.12-2.79-6.98-1.86-1.86-4.5-2.79-7.91-2.79-3.11,0-6.2,1.55-9.3,4.65-4.65,4.65-6.98,9.61-6.98,14.88v26.05Z"/>
    <path class="cls-1" d="m416.97,429.88h9.3v79.54h-9.3v-6.51c-3.42,4.96-8.07,7.44-13.95,7.44-6.51,0-11.63-1.86-15.35-5.59-5.58-5.58-8.37-12.71-8.37-21.4,0-9.3,2.47-16.44,7.44-21.4,4.03-4.03,8.84-6.05,14.42-6.05,6.82,0,12.09,2.64,15.82,7.91v-33.96Zm-22.79,38.14c-3.11,3.11-4.65,8.22-4.65,15.35s1.7,11.95,5.12,15.35c2.17,2.17,4.81,3.25,7.91,3.25,3.72,0,6.82-1.24,9.3-3.72,3.41-3.42,5.12-8.38,5.12-14.89s-1.86-11.63-5.58-15.35c-2.49-2.47-5.43-3.72-8.84-3.72-3.11,0-5.9,1.24-8.38,3.72Z"/>
    <path class="cls-1" d="m458.08,430.35h9.3v12.09h-9.3v-12.09Zm0,26.98h9.3v52.09h-9.3v-52.09Z"/>
    <path class="cls-1" d="m509.44,509.42h-9.3v-52.09h9.3v9.3c5.58-6.82,11.47-10.24,17.68-10.24s11.17,1.86,14.88,5.59c2.48,2.49,3.72,5.43,3.72,8.84v38.6h-9.3v-35.81c0-2.79-.93-5.12-2.79-6.98-1.86-1.86-4.5-2.79-7.91-2.79-3.11,0-6.2,1.55-9.3,4.65-4.65,4.65-6.98,9.61-6.98,14.88v26.05Z"/>
    <path class="cls-1" d="m583.59,461.52c3.41-3.41,7.74-5.12,13.02-5.12,4.96,0,9.3,1.56,13.03,4.65,3.1-3.09,6.82-4.65,11.17-4.65h4.19v8.84c-3.72-1.55-7.91-1.7-12.56-.46,2.16,2.79,3.26,6.05,3.26,9.77,0,5.59-1.71,10.08-5.12,13.49-3.1,3.11-7.6,4.65-13.49,4.65-3.1,0-6.36-.77-9.77-2.33-1.55,1.24-2.33,2.49-2.33,3.72,0,.93.31,1.71.93,2.33,1.55,1.55,5.12,2.48,10.69,2.79,4.96.31,10.24.63,15.82.93,3.1.63,5.42,1.71,6.98,3.26,2.48,2.49,3.72,5.42,3.72,8.84,0,3.72-1.24,6.82-3.72,9.3-3.42,3.41-10.86,5.12-22.33,5.12-9.61,0-16.13-1.71-19.53-5.12-2.17-2.18-3.25-4.81-3.25-7.91,0-2.17.77-4.03,2.33-5.58,1.23-1.24,3.09-2.48,5.58-3.72-.93-.62-2.02-1.55-3.25-2.79-1.56-1.55-2.33-3.56-2.33-6.05,0-3.09,2.33-6.04,6.98-8.83-3.42-3.42-5.12-7.45-5.12-12.1,0-5.27,1.71-9.6,5.12-13.02Zm5.58,45.12c-2.17.63-3.72,1.4-4.65,2.33-1.24,1.24-1.86,2.63-1.86,4.19s.62,2.94,1.86,4.19c1.86,1.86,5.89,2.79,12.09,2.79,8.38,0,13.65-1.09,15.82-3.25,1.24-1.24,1.86-2.49,1.86-3.72s-.46-2.33-1.4-3.25c-1.24-1.24-3.42-1.86-6.51-1.86-7.45-.31-13.19-.77-17.22-1.4Zm1.86-40c-2.17,2.17-3.26,4.81-3.26,7.9s.93,5.59,2.8,7.45c1.85,1.85,4.03,2.79,6.51,2.79,2.8,0,4.96-.77,6.51-2.33,1.86-1.86,2.8-4.5,2.8-7.91,0-3.09-1.1-5.73-3.26-7.9-1.55-1.55-3.72-2.33-6.51-2.33-2.17,0-4.03.78-5.58,2.33Z"/>
    <path class="cls-1" d="m716.53,434.54c3.72-3.72,7.91-5.58,12.56-5.58,5.27,0,9.45,1.55,12.56,4.65,3.41,3.42,5.12,7.6,5.12,12.56,0,5.58-1.85,10.23-5.58,13.95-2.79,2.79-6.82,5.43-12.09,7.9,8.37,11.17,15.19,18.3,20.47,21.4,1.85-3.41,2.79-8.38,2.79-14.89h9.77c-.31,7.14-2.02,13.95-5.12,20.47,3.72,2.49,7.13,4.19,10.23,5.12l-3.72,9.3c-2.18-.62-6.36-3.09-12.56-7.44-5.9,5.59-13.8,8.38-23.72,8.38-8.38,0-14.73-2.16-19.07-6.51-4.35-4.34-6.51-9.3-6.51-14.88,0-6.51,2.48-12.25,7.44-17.22,2.16-2.16,4.96-4.34,8.38-6.51-4.35-6.51-6.51-12.25-6.51-17.21,0-5.27,1.86-9.77,5.58-13.49Zm-4.65,54.43c0,3.42,1.24,6.36,3.72,8.83,2.79,2.8,6.66,4.19,11.63,4.19,7.13,0,12.71-1.86,16.74-5.58-7.76-6.82-15.2-15.04-22.33-24.66-1.55.93-3.1,2.17-4.65,3.72-3.42,3.42-5.12,7.9-5.12,13.49Zm11.17-49.31c-1.86,1.86-2.79,4.81-2.79,8.84,0,3.72,1.55,8.07,4.65,13.03,3.72-1.86,6.51-3.72,8.38-5.59,2.79-2.79,4.18-5.89,4.18-9.3,0-2.79-.93-5.12-2.79-6.98-1.55-1.55-3.57-2.33-6.05-2.33-2.17,0-4.03.78-5.58,2.33Z"/>
    <path class="cls-1" d="m848.07,429.88h27.92c9.3,0,17.21,3.25,23.72,9.77,6.82,6.82,10.23,17.06,10.23,30.7s-3.57,23.11-10.69,30.24c-5.9,5.89-13.65,8.83-23.26,8.83h-27.92v-79.54Zm10.7,8.84v61.87h16.74c5.89,0,10.7-1.86,14.43-5.59,5.88-5.89,8.83-14.11,8.83-24.66,0-11.16-2.79-19.53-8.37-25.11-4.35-4.34-9.3-6.51-14.89-6.51h-16.74Z"/>
    <path class="cls-1" d="m948.75,462.91c4.34-4.34,9.92-6.51,16.74-6.51s12.09,2.33,16.74,6.98c4.34,4.35,6.51,11.02,6.51,20h-37.68c0,6.51,1.55,11.33,4.65,14.42,2.79,2.8,6.35,4.19,10.69,4.19s7.45-.93,9.31-2.79c2.16-2.16,3.25-4.65,3.25-7.44h10.23c-1.24,5.58-3.25,9.77-6.04,12.56-4.03,4.03-9.62,6.05-16.75,6.05s-13.48-2.33-18.14-6.98c-4.97-4.96-7.45-11.63-7.45-20s2.63-15.19,7.91-20.47Zm6.98,5.12c-2.17,2.18-3.57,4.81-4.19,7.91h26.52c0-3.1-1.24-5.89-3.72-8.38-2.17-2.16-5.28-3.25-9.3-3.25-3.72,0-6.82,1.24-9.3,3.72Z"/>
    <path class="cls-1" d="m1023.82,461.98c3.72-3.72,8.99-5.59,15.82-5.59,7.44,0,12.87,1.71,16.28,5.12,3.09,3.1,4.65,6.51,4.65,10.23h-9.3c-.32-2.16-.93-3.72-1.86-4.65-1.86-1.86-5.28-2.79-10.24-2.79-3.1,0-5.58.93-7.44,2.79-1.55,1.55-2.33,3.25-2.33,5.12,0,1.24.46,2.33,1.4,3.26,1.24,1.24,5.12,2.63,11.63,4.19,4.03.93,7.44,1.85,10.23,2.79,2.48.93,4.34,2.02,5.59,3.25,2.47,2.49,3.72,5.43,3.72,8.84,0,3.72-1.55,7.14-4.65,10.23-3.72,3.72-9.46,5.59-17.21,5.59s-13.49-1.86-17.22-5.59c-3.1-3.09-4.65-6.98-4.65-11.63h9.3c.31,2.8,1.09,4.81,2.33,6.05,2.17,2.17,5.42,3.25,9.77,3.25,5.27,0,8.84-.93,10.69-2.79,1.24-1.24,1.86-2.79,1.86-4.65,0-1.24-.78-2.63-2.33-4.19-1.24-1.24-3.25-2.16-6.05-2.79-5.58-1.24-9.77-2.33-12.56-3.25-3.42-.93-5.9-2.17-7.44-3.72-2.79-2.79-4.19-5.73-4.19-8.84,0-4.03,1.4-7.44,4.19-10.23Z"/>
    <path class="cls-1" d="m1093.31,430.35h9.3v12.09h-9.3v-12.09Zm0,26.98h9.3v52.09h-9.3v-52.09Z"/>
    <path class="cls-1" d="m1141.42,461.52c3.41-3.41,7.74-5.12,13.02-5.12,4.96,0,9.3,1.56,13.03,4.65,3.1-3.09,6.82-4.65,11.17-4.65h4.19v8.84c-3.72-1.55-7.91-1.7-12.56-.46,2.16,2.79,3.26,6.05,3.26,9.77,0,5.59-1.71,10.08-5.12,13.49-3.1,3.11-7.6,4.65-13.49,4.65-3.1,0-6.36-.77-9.77-2.33-1.55,1.24-2.33,2.49-2.33,3.72,0,.93.31,1.71.93,2.33,1.55,1.55,5.12,2.48,10.69,2.79,4.96.31,10.24.63,15.82.93,3.1.63,5.42,1.71,6.98,3.26,2.48,2.49,3.72,5.42,3.72,8.84,0,3.72-1.24,6.82-3.72,9.3-3.42,3.41-10.86,5.12-22.33,5.12-9.61,0-16.13-1.71-19.53-5.12-2.17-2.18-3.25-4.81-3.25-7.91,0-2.17.77-4.03,2.33-5.58,1.23-1.24,3.09-2.48,5.58-3.72-.93-.62-2.02-1.55-3.25-2.79-1.56-1.55-2.33-3.56-2.33-6.05,0-3.09,2.33-6.04,6.98-8.83-3.42-3.42-5.12-7.45-5.12-12.1,0-5.27,1.71-9.6,5.12-13.02Zm5.58,45.12c-2.17.63-3.72,1.4-4.65,2.33-1.24,1.24-1.86,2.63-1.86,4.19s.62,2.94,1.86,4.19c1.86,1.86,5.89,2.79,12.09,2.79,8.38,0,13.65-1.09,15.82-3.25,1.24-1.24,1.86-2.49,1.86-3.72s-.46-2.33-1.4-3.25c-1.24-1.24-3.42-1.86-6.51-1.86-7.45-.31-13.19-.77-17.22-1.4Zm1.86-40c-2.17,2.17-3.26,4.81-3.26,7.9s.93,5.59,2.8,7.45c1.85,1.85,4.03,2.79,6.51,2.79,2.8,0,4.96-.77,6.51-2.33,1.86-1.86,2.8-4.5,2.8-7.91,0-3.09-1.1-5.73-3.26-7.9-1.55-1.55-3.72-2.33-6.51-2.33-2.17,0-4.03.78-5.58,2.33Z"/>
    <path class="cls-1" d="m1217.42,509.42h-9.3v-52.09h9.3v9.3c5.58-6.82,11.47-10.24,17.68-10.24s11.17,1.86,14.88,5.59c2.48,2.49,3.72,5.43,3.72,8.84v38.6h-9.3v-35.81c0-2.79-.93-5.12-2.79-6.98-1.86-1.86-4.5-2.79-7.91-2.79-3.11,0-6.2,1.55-9.3,4.65-4.65,4.65-6.98,9.61-6.98,14.88v26.05Z"/>
  </g>
  <g>
    <g>
      <path class="cls-1" d="m77.32,114.9h55.08l55.07,110.15v-110.15h62.94v251.77h-55.07l-55.08-110.15v110.15h-62.94V114.9Z"/>
      <path class="cls-1" d="m281.9,162.11c0-13.11,4.59-24.26,13.77-33.44,9.18-9.18,20.32-13.77,33.44-13.77h62.94c13.12,0,24.26,4.59,33.44,13.77,9.18,9.18,13.77,20.33,13.77,33.44v204.57h-62.94v-78.68h-31.47v78.68h-62.94v-204.57Zm70.81-110.15h70.81l-47.21,47.21h-47.21l23.61-47.21Zm23.6,110.15h-31.47v78.68h31.47v-78.68Z"/>
      <path class="cls-1" d="m470.74,114.9h62.94v94.42l31.47-62.94v-31.47h62.94v31.47l-31.47,62.94c8.52,0,15.9,3.12,22.13,9.35,6.23,6.23,9.35,13.61,9.35,22.13v125.89h-62.94v-110.15h-31.47v110.15h-62.94V114.9Z"/>
      <path class="cls-1" d="m659.58,162.11c0-13.11,4.59-24.26,13.77-33.44,9.18-9.18,20.32-13.77,33.44-13.77h62.94c13.12,0,24.26,4.59,33.44,13.77,9.18,9.18,13.77,20.33,13.77,33.44v204.57h-62.94v-78.68h-31.47v78.68h-62.94v-204.57Zm94.42,0h-31.47v78.68h31.47v-78.68Z"/>
      <path class="cls-1" d="m848.42,114.9h55.07l55.08,110.15,55.08-110.15h55.07v251.77h-62.94v-110.15l-47.21,94.42-47.21-94.42v110.15h-62.94V114.9Z"/>
      <path class="cls-1" d="m1100.21,162.11c0-13.11,4.59-24.26,13.77-33.44,9.18-9.18,20.32-13.77,33.44-13.77h62.94c13.12,0,24.26,4.59,33.44,13.77,9.18,9.18,13.77,20.33,13.77,33.44v204.57h-62.94v-78.68h-31.47v78.68h-62.94v-204.57Zm94.42,0h-31.47v78.68h31.47v-78.68Z"/>
    </g>
    <g>
      <path class="cls-2" d="m1396.23,229.57l-.79,17.26c20.31,9.82,24.68,41.3,24.68,41.3,4.84,26.92-10.8,48.47-15.75,54.49,4.35,2.06,10,4.17,16.81,5.58,13.3-17.08,15.46-45.96,15.46-45.96,18.36,8.96,26.62,25.69,26.62,25.69.08,3.37-1.77,8.72-3.6,13.14l13.17,8.7c4.66-10.57,7.3-22.24,7.3-34.54,0-46.73-37.4-84.66-83.89-85.65Zm38.44,53.9c-.74-14.29-11.43-30.73-11.43-30.73,38.03,14.83,39.93,48.94,39.93,48.94-5.22-8.73-28.5-18.21-28.5-18.21Z"/>
      <path class="cls-2" d="m1394.38,400.96c31.12,0,58.3-16.64,73.32-41.46l-13.79-9.11c-18.85,12.4-48.11,0-48.11,0-26.28-9.91-36.64-35.51-38.91-42.07-5.61,3.58-10.22,7.87-13.49,11.36,7.51,20.54,31.82,37.65,31.82,37.65-17.11,11.16-35.71,9.67-35.71,9.67-3.01-1.7-6.78-6.24-9.67-10.14l-15.62,7.55c15.51,22.08,41.13,36.55,70.16,36.55Zm7.95-35.69c12.65,6.7,32.23,5.95,32.23,5.95-32.23,25.05-62.49,9.17-62.49,9.17,10.17,0,30.25-15.13,30.25-15.13Z"/>
      <path class="cls-2" d="m1358.09,306.53c22.1-17.62,49.63-13.25,56.2-11.87-.6-6.67-2.36-13.17-3.79-17.58-21.36-3.62-47.86,8.22-47.86,8.22-.83-20.41,10.01-35.63,10.01-35.63,2.65-1.51,7.45-2.39,11.86-2.92l.75-16.77c-.06,0-.11.01-.17.02-42.98,4.63-76.45,41.01-76.45,85.22,0,14.4,3.59,27.95,9.86,39.87l14.97-7.23c-1.01-22.54,24.61-41.33,24.61-41.33Zm-8.52-44.33c-5.21,8.73-2.49,33.73-2.49,33.73-12.23,7.44-21.61,24.65-21.61,24.65-5.02-40.51,24.1-58.38,24.1-58.38Z"/>
    </g>
  </g>
</svg>