<?xml version="1.0" encoding="UTF-8"?>
<svg id="Camada_1" data-name="Camada 1" xmlns="http://www.w3.org/2000/svg" viewBox="0 0 1655.25 439.33">
  <defs>
    <style>
      .cls-1 {
        fill: #462324;
      }

      .cls-2 {
        fill: #e34e35;
      }
    </style>
  </defs>
  <g>
    <path class="cls-1" d="m126.22,108.1h55.08l55.07,110.15v-110.15h62.94v251.77h-55.07l-55.08-110.15v110.15h-62.94V108.1Z"/>
    <path class="cls-1" d="m330.8,155.31c0-13.11,4.59-24.26,13.77-33.44,9.18-9.18,20.32-13.77,33.44-13.77h62.94c13.12,0,24.26,4.59,33.44,13.77,9.18,9.18,13.77,20.33,13.77,33.44v204.57h-62.94v-78.68h-31.47v78.68h-62.94v-204.57Zm70.81-110.15h70.81l-47.21,47.21h-47.21l23.61-47.21Zm23.6,110.15h-31.47v78.68h31.47v-78.68Z"/>
    <path class="cls-1" d="m519.64,108.1h62.94v94.42l31.47-62.94v-31.47h62.94v31.47l-31.47,62.94c8.52,0,15.9,3.12,22.13,9.35,6.23,6.23,9.35,13.61,9.35,22.13v125.89h-62.94v-110.15h-31.47v110.15h-62.94V108.1Z"/>
    <path class="cls-1" d="m708.48,155.31c0-13.11,4.59-24.26,13.77-33.44,9.18-9.18,20.32-13.77,33.44-13.77h62.94c13.12,0,24.26,4.59,33.44,13.77,9.18,9.18,13.77,20.33,13.77,33.44v204.57h-62.94v-78.68h-31.47v78.68h-62.94v-204.57Zm94.42,0h-31.47v78.68h31.47v-78.68Z"/>
    <path class="cls-1" d="m897.32,108.1h55.07l55.08,110.15,55.08-110.15h55.07v251.77h-62.94v-110.15l-47.21,94.42-47.21-94.42v110.15h-62.94V108.1Z"/>
    <path class="cls-1" d="m1149.11,155.31c0-13.11,4.59-24.26,13.77-33.44,9.18-9.18,20.32-13.77,33.44-13.77h62.94c13.12,0,24.26,4.59,33.44,13.77,9.18,9.18,13.77,20.33,13.77,33.44v204.57h-62.94v-78.68h-31.47v78.68h-62.94v-204.57Zm94.42,0h-31.47v78.68h31.47v-78.68Z"/>
  </g>
  <g>
    <path class="cls-2" d="m1445.13,222.78l-.79,17.26c20.31,9.82,24.68,41.3,24.68,41.3,4.84,26.92-10.8,48.47-15.75,54.49,4.35,2.06,10,4.17,16.81,5.58,13.3-17.08,15.46-45.96,15.46-45.96,18.36,8.96,26.62,25.69,26.62,25.69.08,3.37-1.77,8.72-3.6,13.14l13.17,8.7c4.66-10.57,7.3-22.24,7.3-34.54,0-46.73-37.4-84.66-83.89-85.65Zm38.44,53.9c-.74-14.29-11.43-30.73-11.43-30.73,38.03,14.83,39.93,48.94,39.93,48.94-5.22-8.73-28.5-18.21-28.5-18.21Z"/>
    <path class="cls-2" d="m1443.28,394.17c31.12,0,58.3-16.64,73.32-41.46l-13.79-9.11c-18.85,12.4-48.11,0-48.11,0-26.28-9.91-36.64-35.51-38.91-42.07-5.61,3.58-10.22,7.87-13.49,11.36,7.51,20.54,31.82,37.65,31.82,37.65-17.11,11.16-35.71,9.67-35.71,9.67-3.01-1.7-6.78-6.24-9.67-10.14l-15.62,7.55c15.51,22.08,41.13,36.55,70.16,36.55Zm7.95-35.69c12.65,6.7,32.23,5.95,32.23,5.95-32.23,25.05-62.49,9.17-62.49,9.17,10.17,0,30.25-15.13,30.25-15.13Z"/>
    <path class="cls-2" d="m1406.99,299.73c22.1-17.62,49.63-13.25,56.2-11.87-.6-6.67-2.36-13.17-3.79-17.58-21.36-3.62-47.86,8.22-47.86,8.22-.83-20.41,10.01-35.63,10.01-35.63,2.65-1.51,7.45-2.39,11.86-2.92l.75-16.77c-.06,0-.11.01-.17.02-42.98,4.63-76.45,41.01-76.45,85.22,0,14.4,3.59,27.95,9.86,39.87l14.97-7.23c-1.01-22.54,24.61-41.33,24.61-41.33Zm-8.52-44.33c-5.21,8.73-2.49,33.73-2.49,33.73-12.23,7.44-21.61,24.65-21.61,24.65-5.02-40.51,24.1-58.38,24.1-58.38Z"/>
  </g>
</svg>