<?xml version="1.0" encoding="UTF-8"?>
<svg id="Camada_1" data-name="Camada 1" xmlns="http://www.w3.org/2000/svg" xmlns:xlink="http://www.w3.org/1999/xlink" viewBox="0 0 1552.02 1552.02">
  <defs>
    <style>
      .cls-1 {
        fill: url(#Gradiente_sem_nome_9);
      }

      .cls-2 {
        clip-path: url(#clippath-2);
      }

      .cls-3 {
        fill: #faedf2;
      }

      .cls-4 {
        clip-path: url(#clippath-6);
      }

      .cls-5 {
        clip-path: url(#clippath-1);
      }

      .cls-6 {
        clip-path: url(#clippath-4);
      }

      .cls-7 {
        clip-path: url(#clippath);
      }

      .cls-8 {
        clip-path: url(#clippath-3);
      }

      .cls-9 {
        clip-path: url(#clippath-5);
      }
    </style>
    <linearGradient id="Gradiente_sem_nome_9" data-name="Gradiente sem nome 9" x1="0" y1="-2.12" x2="1552.02" y2="1549.91" gradientUnits="userSpaceOnUse">
      <stop offset="0" stop-color="#702e3d"/>
      <stop offset="1" stop-color="#e34e35"/>
    </linearGradient>
    <clipPath id="clippath">
      <path class="cls-3" d="m132.53,315.31h73.68l73.68,130.34v-130.34h84.21v297.92h-73.68l-73.68-130.34v130.34h-84.21v-297.92Z"/>
    </clipPath>
    <clipPath id="clippath-1">
      <path class="cls-3" d="m397.39,371.18c0-15.52,5.43-28.71,16.3-39.56,10.86-10.87,24.05-16.3,39.56-16.3h74.48c15.52,0,28.71,5.43,39.56,16.3,10.87,10.86,16.3,24.05,16.3,39.56v242.06h-74.48v-93.1h-37.24v93.1h-74.48v-242.06Zm111.72,0h-37.24v93.1h37.24v-93.1Z"/>
    </clipPath>
    <clipPath id="clippath-2">
      <path class="cls-3" d="m132.53,664.81h92.63v111.72l46.32-74.48v-37.24h92.63v37.24l-46.32,74.48c12.55,0,23.39,3.68,32.57,11.06,9.17,7.37,13.75,16.1,13.75,26.18v148.96h-92.63v-130.34h-46.32v130.34h-92.63v-297.92Z"/>
    </clipPath>
    <clipPath id="clippath-3">
      <path class="cls-3" d="m397.39,720.67c0-15.52,5.43-28.71,16.3-39.56,10.86-10.87,24.05-16.3,39.56-16.3h74.48c15.52,0,28.71,5.43,39.56,16.3,10.87,10.86,16.3,24.05,16.3,39.56v242.06h-74.48v-93.1h-37.24v93.1h-74.48v-242.06Zm111.72,0h-37.24v93.1h37.24v-93.1Z"/>
    </clipPath>
    <clipPath id="clippath-4">
      <path class="cls-3" d="m132.53,1014.3h65.17l50.73,130.34,50.51-130.34h65.17v297.92h-74.48v-130.34l-41.2,111.72-41.42-111.72v130.34h-74.48v-297.92Z"/>
    </clipPath>
    <clipPath id="clippath-5">
      <path class="cls-3" d="m397.39,1070.16c0-15.52,5.43-28.71,16.3-39.56,10.86-10.87,24.05-16.3,39.56-16.3h74.48c15.52,0,28.71,5.43,39.56,16.3,10.87,10.86,16.3,24.05,16.3,39.56v242.06h-74.48v-93.1h-37.24v93.1h-74.48v-242.06Zm111.72,0h-37.24v93.1h37.24v-93.1Z"/>
    </clipPath>
    <clipPath id="clippath-6">
      <path class="cls-3" d="m480.99,239.8h84.35l-56.24,56.24h-56.24l28.12-56.24Z"/>
    </clipPath>
  </defs>
  <rect class="cls-1" y="-2.12" width="1552.02" height="1552.02"/>
  <g>
    <g>
      <path class="cls-3" d="m132.53,315.31h73.68l73.68,130.34v-130.34h84.21v297.92h-73.68l-73.68-130.34v130.34h-84.21v-297.92Z"/>
      <g class="cls-7">
        <rect class="cls-3" x="132.53" y="239.8" width="451.06" height="1072.42"/>
      </g>
    </g>
    <g>
      <path class="cls-3" d="m397.39,371.18c0-15.52,5.43-28.71,16.3-39.56,10.86-10.87,24.05-16.3,39.56-16.3h74.48c15.52,0,28.71,5.43,39.56,16.3,10.87,10.86,16.3,24.05,16.3,39.56v242.06h-74.48v-93.1h-37.24v93.1h-74.48v-242.06Zm111.72,0h-37.24v93.1h37.24v-93.1Z"/>
      <g class="cls-5">
        <rect class="cls-3" x="132.53" y="239.8" width="451.06" height="1072.42"/>
      </g>
    </g>
    <g>
      <path class="cls-3" d="m132.53,664.81h92.63v111.72l46.32-74.48v-37.24h92.63v37.24l-46.32,74.48c12.55,0,23.39,3.68,32.57,11.06,9.17,7.37,13.75,16.1,13.75,26.18v148.96h-92.63v-130.34h-46.32v130.34h-92.63v-297.92Z"/>
      <g class="cls-2">
        <rect class="cls-3" x="132.53" y="239.8" width="451.06" height="1072.42"/>
      </g>
    </g>
    <g>
      <path class="cls-3" d="m397.39,720.67c0-15.52,5.43-28.71,16.3-39.56,10.86-10.87,24.05-16.3,39.56-16.3h74.48c15.52,0,28.71,5.43,39.56,16.3,10.87,10.86,16.3,24.05,16.3,39.56v242.06h-74.48v-93.1h-37.24v93.1h-74.48v-242.06Zm111.72,0h-37.24v93.1h37.24v-93.1Z"/>
      <g class="cls-8">
        <rect class="cls-3" x="132.53" y="239.8" width="451.06" height="1072.42"/>
      </g>
    </g>
    <g>
      <path class="cls-3" d="m132.53,1014.3h65.17l50.73,130.34,50.51-130.34h65.17v297.92h-74.48v-130.34l-41.2,111.72-41.42-111.72v130.34h-74.48v-297.92Z"/>
      <g class="cls-6">
        <rect class="cls-3" x="132.53" y="239.8" width="451.06" height="1072.42"/>
      </g>
    </g>
    <g>
      <path class="cls-3" d="m397.39,1070.16c0-15.52,5.43-28.71,16.3-39.56,10.86-10.87,24.05-16.3,39.56-16.3h74.48c15.52,0,28.71,5.43,39.56,16.3,10.87,10.86,16.3,24.05,16.3,39.56v242.06h-74.48v-93.1h-37.24v93.1h-74.48v-242.06Zm111.72,0h-37.24v93.1h37.24v-93.1Z"/>
      <g class="cls-9">
        <rect class="cls-3" x="132.53" y="239.8" width="451.06" height="1072.42"/>
      </g>
    </g>
    <g>
      <path class="cls-3" d="m480.99,239.8h84.35l-56.24,56.24h-56.24l28.12-56.24Z"/>
      <g class="cls-4">
        <rect class="cls-3" x="132.53" y="239.8" width="451.06" height="1072.42"/>
      </g>
    </g>
    <g>
      <path class="cls-3" d="m688.98,664.81h49.54c8.25,0,15.06,2.69,20.43,8.05,4.95,4.95,7.43,11.56,7.43,19.81,0,6.61-2.27,12.18-6.81,16.72-2.48,2.48-5.57,4.34-9.28,5.58,4.95,1.65,8.87,3.92,11.76,6.8,4.95,4.96,7.43,11.15,7.43,18.58,0,9.09-3.1,16.72-9.29,22.91-4.95,4.95-12.39,7.43-22.3,7.43h-48.92v-105.88Zm14.25,11.76v32.82h33.43c4.12,0,7.63-1.44,10.52-4.34,3.3-3.3,4.95-7.63,4.95-13,0-4.54-1.65-8.46-4.95-11.76-2.48-2.48-5.57-3.72-9.29-3.72h-34.67Zm0,44.58v37.77h31.57c6.2,0,10.93-1.64,14.24-4.95,3.72-3.71,5.57-8.25,5.57-13.62,0-5.77-1.65-10.31-4.95-13.61-3.71-3.72-8.66-5.58-14.86-5.58h-31.57Z"/>
      <path class="cls-3" d="m857.65,700.1v13.62c-1.65-.4-3.92-.62-6.81-.62-6.19,0-11.98,2.69-17.33,8.05-4.55,4.55-7.64,9.29-9.29,14.24v35.29h-12.38v-69.34h12.38v17.33c2.06-3.3,4.34-6.2,6.81-8.67,6.6-6.6,15.47-9.91,26.62-9.91Z"/>
      <path class="cls-3" d="m898.77,706.91c4.54-4.53,11.15-6.81,19.82-6.81,10.31,0,17.74,2.28,22.29,6.81,4.12,4.13,6.2,8.89,6.2,14.24v39.01c0,4.54,1.64,8.05,4.95,10.52h-14.87c-1.65-1.64-2.48-4.34-2.48-8.05-6.19,6.19-14.04,9.29-23.53,9.29-7.84,0-13.83-2.07-17.95-6.2-3.72-3.71-5.58-8.05-5.58-13,0-5.78,1.86-10.53,5.58-14.24,4.12-4.13,9.91-6.81,17.33-8.05,4.95-.82,9.29-1.86,13.01-3.09,5.35-1.24,9.07-2.48,11.14-3.72,0-3.3-1.23-6.19-3.71-8.66-2.48-2.49-5.99-3.72-10.53-3.72-5.78,0-9.91,1.23-12.38,3.72-1.65,1.65-2.9,3.92-3.72,6.8h-13.61c1.23-5.77,3.92-10.73,8.05-14.86Zm35.91,28.48c-2.48.83-4.75,1.46-6.81,1.86-7.02,1.65-12.38,2.9-16.09,3.72-3.31.83-5.79,2.07-7.44,3.71-2.07,2.07-3.09,4.34-3.09,6.81,0,2.9,1.03,5.37,3.09,7.43,1.24,1.24,3.92,1.86,8.05,1.86,7.02,0,12.79-2.26,17.33-6.81,2.89-2.88,4.54-4.95,4.95-6.2v-12.38Z"/>
      <path class="cls-3" d="m1003.03,770.69h-12.38v-69.34h12.38v12.38c7.43-9.07,15.27-13.62,23.53-13.62s14.87,2.48,19.82,7.43c3.3,3.32,4.95,7.23,4.95,11.76v51.39h-12.39v-47.67c0-3.72-1.23-6.81-3.71-9.29-2.48-2.48-5.99-3.72-10.53-3.72-4.13,0-8.26,2.07-12.38,6.2-6.19,6.2-9.29,12.8-9.29,19.81v34.68Z"/>
      <path class="cls-3" d="m1142.6,664.81h12.38v105.88h-12.38v-8.66c-4.55,6.61-10.75,9.91-18.58,9.91-8.67,0-15.48-2.48-20.44-7.43-7.43-7.44-11.15-16.92-11.15-28.49,0-12.38,3.3-21.87,9.91-28.48,5.35-5.35,11.76-8.05,19.19-8.05,9.07,0,16.1,3.51,21.05,10.52v-45.2Zm-30.34,50.78c-4.13,4.13-6.2,10.94-6.2,20.43s2.26,15.9,6.81,20.44c2.89,2.9,6.39,4.34,10.53,4.34,4.95,0,9.07-1.64,12.38-4.95,4.53-4.54,6.81-11.15,6.81-19.82s-2.48-15.47-7.43-20.43c-3.32-3.3-7.23-4.95-11.76-4.95-4.14,0-7.85,1.65-11.15,4.95Z"/>
      <path class="cls-3" d="m1197.33,665.43h12.39v16.1h-12.39v-16.1Zm0,35.92h12.39v69.34h-12.39v-69.34Z"/>
      <path class="cls-3" d="m1265.69,770.69h-12.38v-69.34h12.38v12.38c7.43-9.07,15.27-13.62,23.53-13.62s14.87,2.48,19.82,7.43c3.3,3.32,4.95,7.23,4.95,11.76v51.39h-12.39v-47.67c0-3.72-1.23-6.81-3.71-9.29s-5.99-3.72-10.53-3.72c-4.13,0-8.26,2.07-12.38,6.2-6.19,6.2-9.29,12.8-9.29,19.81v34.68Z"/>
      <path class="cls-3" d="m1364.38,706.91c4.54-4.53,10.32-6.81,17.34-6.81,6.6,0,12.38,2.07,17.33,6.2,4.12-4.12,9.07-6.2,14.86-6.2h5.58v11.76c-4.95-2.06-10.53-2.26-16.72-.62,2.88,3.72,4.34,8.05,4.34,13,0,7.44-2.28,13.43-6.81,17.96-4.13,4.13-10.12,6.2-17.96,6.2-4.13,0-8.47-1.03-13.01-3.1-2.07,1.65-3.09,3.32-3.09,4.96,0,1.23.41,2.27,1.24,3.09,2.06,2.07,6.81,3.31,14.24,3.71,6.6.42,13.62.83,21.05,1.24,4.12.83,7.21,2.27,9.29,4.34,3.3,3.31,4.95,7.22,4.95,11.76,0,4.95-1.65,9.07-4.95,12.38-4.55,4.54-14.46,6.81-29.72,6.81-12.8,0-21.46-2.27-26.01-6.81-2.9-2.9-4.34-6.4-4.34-10.52,0-2.9,1.03-5.36,3.09-7.44,1.64-1.64,4.12-3.3,7.44-4.95-1.24-.82-2.69-2.06-4.34-3.71-2.07-2.07-3.1-4.75-3.1-8.05,0-4.12,3.1-8.05,9.29-11.76-4.54-4.53-6.81-9.91-6.81-16.1,0-7.01,2.27-12.78,6.81-17.33Zm7.44,60.06c-2.9.83-4.96,1.85-6.2,3.09-1.65,1.65-2.48,3.5-2.48,5.57s.82,3.92,2.48,5.58c2.48,2.48,7.84,3.71,16.1,3.71,11.14,0,18.16-1.45,21.05-4.34,1.64-1.65,2.48-3.31,2.48-4.95s-.63-3.09-1.86-4.34c-1.65-1.64-4.55-2.48-8.67-2.48-9.91-.4-17.55-1.02-22.9-1.85Zm2.48-53.25c-2.9,2.9-4.34,6.4-4.34,10.52s1.23,7.44,3.71,9.91c2.48,2.48,5.36,3.71,8.67,3.71,3.72,0,6.6-1.02,8.67-3.09,2.48-2.48,3.71-5.98,3.71-10.53,0-4.12-1.45-7.63-4.34-10.52-2.07-2.07-4.95-3.09-8.66-3.09-2.9,0-5.37,1.03-7.43,3.09Z"/>
      <path class="cls-3" d="m703.85,861.22c4.95-4.95,10.52-7.43,16.72-7.43,7.02,0,12.59,2.07,16.72,6.19,4.54,4.55,6.81,10.12,6.81,16.72,0,7.44-2.48,13.62-7.43,18.58-3.72,3.72-9.08,7.23-16.1,10.53,11.15,14.86,20.22,24.36,27.24,28.48,2.49-4.54,3.72-11.15,3.72-19.82h13.01c-.42,9.5-2.69,18.58-6.81,27.25,4.95,3.31,9.48,5.57,13.61,6.81l-4.95,12.38c-2.89-.82-8.47-4.12-16.72-9.91-7.84,7.43-18.37,11.15-31.57,11.15-11.15,0-19.61-2.89-25.39-8.67-5.78-5.77-8.67-12.38-8.67-19.81,0-8.67,3.3-16.31,9.91-22.91,2.88-2.89,6.6-5.77,11.14-8.67-5.78-8.66-8.66-16.3-8.66-22.91,0-7.01,2.48-13,7.43-17.95Zm-6.2,72.45c0,4.54,1.64,8.47,4.95,11.76,3.72,3.71,8.88,5.57,15.48,5.57,9.49,0,16.92-2.48,22.29-7.43-10.32-9.07-20.23-20.02-29.72-32.82-2.07,1.23-4.13,2.89-6.2,4.95-4.55,4.55-6.81,10.52-6.81,17.96Zm14.86-65.63c-2.48,2.48-3.71,6.4-3.71,11.76,0,4.95,2.06,10.74,6.2,17.33,4.95-2.48,8.66-4.95,11.14-7.43,3.72-3.72,5.58-7.84,5.58-12.38,0-3.72-1.24-6.81-3.72-9.29-2.07-2.07-4.75-3.1-8.05-3.1-2.9,0-5.37,1.04-7.44,3.1Z"/>
      <path class="cls-3" d="m878.95,855.02h37.15c12.39,0,22.91,4.34,31.58,13.01,9.07,9.08,13.61,22.71,13.61,40.86s-4.75,30.76-14.24,40.25c-7.84,7.85-18.17,11.76-30.96,11.76h-37.15v-105.88Zm14.25,11.76v82.35h22.29c7.84,0,14.24-2.48,19.19-7.43,7.84-7.84,11.76-18.78,11.76-32.82,0-14.86-3.71-26.01-11.15-33.43-5.78-5.77-12.38-8.67-19.81-8.67h-22.29Z"/>
      <path class="cls-3" d="m1012.94,898.99c5.77-5.77,13.2-8.67,22.29-8.67s16.1,3.1,22.3,9.29c5.77,5.78,8.66,14.66,8.66,26.62h-50.15c0,8.67,2.06,15.08,6.2,19.2,3.71,3.71,8.45,5.57,14.24,5.57s9.91-1.24,12.38-3.72c2.88-2.88,4.34-6.19,4.34-9.91h13.62c-1.66,7.43-4.34,13.01-8.05,16.72-5.37,5.37-12.8,8.05-22.29,8.05s-17.96-3.1-24.15-9.29c-6.61-6.6-9.91-15.48-9.91-26.63s3.5-20.21,10.53-27.24Zm9.29,6.81c-2.9,2.89-4.76,6.4-5.58,10.52h35.29c0-4.12-1.65-7.83-4.95-11.14-2.89-2.89-7.03-4.34-12.38-4.34-4.95,0-9.08,1.65-12.38,4.95Z"/>
      <path class="cls-3" d="m1112.88,897.75c4.95-4.95,11.97-7.43,21.05-7.43,9.91,0,17.13,2.28,21.67,6.81,4.12,4.13,6.2,8.67,6.2,13.62h-12.38c-.42-2.89-1.24-4.95-2.48-6.2-2.48-2.48-7.03-3.71-13.62-3.71-4.13,0-7.43,1.23-9.91,3.71-2.07,2.07-3.1,4.34-3.1,6.81,0,1.65.63,3.09,1.86,4.34,1.64,1.65,6.81,3.51,15.48,5.57,5.35,1.24,9.91,2.48,13.62,3.72,3.3,1.23,5.77,2.69,7.43,4.34,3.3,3.31,4.95,7.22,4.95,11.76,0,4.95-2.07,9.5-6.2,13.62-4.95,4.95-12.6,7.43-22.9,7.43s-17.96-2.48-22.91-7.43c-4.13-4.12-6.2-9.29-6.2-15.48h12.38c.41,3.72,1.45,6.4,3.1,8.05,2.88,2.9,7.21,4.34,13,4.34,7.02,0,11.76-1.23,14.24-3.71,1.64-1.64,2.48-3.72,2.48-6.2,0-1.64-1.03-3.5-3.09-5.57-1.65-1.64-4.34-2.89-8.05-3.72-7.44-1.64-13.01-3.09-16.72-4.34-4.55-1.23-7.85-2.88-9.91-4.95-3.71-3.71-5.57-7.63-5.57-11.76,0-5.35,1.86-9.91,5.57-13.62Z"/>
      <path class="cls-3" d="m1205.38,855.64h12.39v16.1h-12.39v-16.1Zm0,35.92h12.39v69.34h-12.39v-69.34Z"/>
      <path class="cls-3" d="m1269.4,897.13c4.54-4.53,10.32-6.81,17.34-6.81,6.6,0,12.38,2.07,17.33,6.2,4.12-4.12,9.07-6.2,14.86-6.2h5.58v11.76c-4.95-2.06-10.53-2.26-16.72-.62,2.88,3.72,4.34,8.05,4.34,13,0,7.44-2.28,13.43-6.81,17.96-4.13,4.13-10.12,6.2-17.96,6.2-4.13,0-8.47-1.03-13.01-3.1-2.07,1.65-3.09,3.32-3.09,4.96,0,1.23.41,2.27,1.24,3.09,2.06,2.07,6.81,3.31,14.24,3.71,6.6.42,13.62.83,21.05,1.24,4.12.83,7.21,2.27,9.29,4.34,3.3,3.31,4.95,7.22,4.95,11.76,0,4.95-1.65,9.07-4.95,12.38-4.55,4.54-14.46,6.81-29.72,6.81-12.8,0-21.46-2.27-26.01-6.81-2.9-2.9-4.34-6.4-4.34-10.52,0-2.9,1.03-5.36,3.09-7.44,1.64-1.64,4.12-3.3,7.44-4.95-1.24-.82-2.69-2.06-4.34-3.71-2.07-2.07-3.1-4.75-3.1-8.05,0-4.12,3.1-8.05,9.29-11.76-4.54-4.53-6.81-9.91-6.81-16.1,0-7.01,2.27-12.78,6.81-17.33Zm7.44,60.06c-2.9.83-4.96,1.85-6.2,3.09-1.65,1.65-2.48,3.5-2.48,5.57s.82,3.92,2.48,5.58c2.48,2.48,7.84,3.71,16.1,3.71,11.14,0,18.16-1.45,21.05-4.34,1.64-1.65,2.48-3.31,2.48-4.95s-.63-3.09-1.86-4.34c-1.65-1.64-4.55-2.48-8.67-2.48-9.91-.4-17.55-1.02-22.9-1.85Zm2.48-53.25c-2.9,2.9-4.34,6.4-4.34,10.52s1.23,7.44,3.71,9.91c2.48,2.48,5.36,3.71,8.67,3.71,3.72,0,6.6-1.02,8.67-3.09,2.48-2.48,3.71-5.98,3.71-10.53,0-4.12-1.45-7.63-4.34-10.52-2.07-2.07-4.95-3.09-8.66-3.09-2.9,0-5.37,1.03-7.43,3.09Z"/>
      <path class="cls-3" d="m1370.58,960.9h-12.38v-69.34h12.38v12.38c7.43-9.07,15.27-13.62,23.53-13.62s14.87,2.48,19.82,7.43c3.3,3.32,4.95,7.23,4.95,11.76v51.39h-12.39v-47.67c0-3.72-1.23-6.81-3.71-9.29-2.48-2.48-5.99-3.72-10.53-3.72-4.13,0-8.26,2.07-12.38,6.2-6.19,6.2-9.29,12.8-9.29,19.81v34.68Z"/>
    </g>
    <g>
      <path class="cls-3" d="m783.56,1125.78l-.85,18.77c22.09,10.68,26.84,44.92,26.84,44.92,5.27,29.28-11.75,52.73-17.14,59.28,4.73,2.24,10.87,4.54,18.29,6.07,14.47-18.58,16.82-50,16.82-50,19.97,9.75,28.95,27.95,28.95,27.95.09,3.66-1.93,9.49-3.91,14.29l14.32,9.46c5.07-11.5,7.94-24.2,7.94-37.58,0-50.83-40.69-92.09-91.26-93.17Zm41.82,58.64c-.8-15.55-12.43-33.42-12.43-33.42,41.37,16.13,43.44,53.23,43.44,53.23-5.67-9.49-31.01-19.81-31.01-19.81Z"/>
      <path class="cls-3" d="m781.55,1312.22c33.86,0,63.41-18.1,79.75-45.1l-15.01-9.91c-20.5,13.49-52.33,0-52.33,0-28.59-10.78-39.86-38.63-42.33-45.76-6.11,3.89-11.12,8.56-14.68,12.36,8.17,22.35,34.62,40.96,34.62,40.96-18.61,12.14-38.84,10.52-38.84,10.52-3.28-1.85-7.37-6.78-10.52-11.03l-16.99,8.21c16.87,24.02,44.74,39.76,76.32,39.76Zm8.64-38.83c13.76,7.28,35.06,6.47,35.06,6.47-35.06,27.24-67.98,9.98-67.98,9.98,11.06,0,32.91-16.45,32.91-16.45Z"/>
      <path class="cls-3" d="m742.07,1209.5c24.04-19.16,53.99-14.41,61.14-12.92-.65-7.26-2.57-14.33-4.12-19.12-23.24-3.94-52.06,8.94-52.06,8.94-.9-22.2,10.89-38.75,10.89-38.75,2.88-1.65,8.1-2.6,12.9-3.17l.81-18.24c-.06,0-.12.02-.19.02-46.76,5.04-83.17,44.61-83.17,92.7,0,15.67,3.91,30.41,10.73,43.37l16.28-7.87c-1.1-24.51,26.77-44.96,26.77-44.96Zm-9.27-48.22c-5.66,9.5-2.71,36.69-2.71,36.69-13.3,8.09-23.51,26.81-23.51,26.81-5.46-44.07,26.21-63.51,26.21-63.51Z"/>
    </g>
  </g>
</svg>