<?xml version="1.0" encoding="UTF-8"?>
<svg id="Camada_1" data-name="Camada 1" xmlns="http://www.w3.org/2000/svg" xmlns:xlink="http://www.w3.org/1999/xlink" viewBox="0 0 816.92 1495.49">
  <defs>
    <style>
      .cls-1 {
        fill: url(#Gradiente_sem_nome_9);
      }

      .cls-2 {
        clip-path: url(#clippath-11);
      }

      .cls-3 {
        clip-path: url(#clippath-13);
      }

      .cls-4 {
        fill: #faedf2;
      }

      .cls-5 {
        clip-path: url(#clippath-7);
      }

      .cls-6 {
        clip-path: url(#clippath-12);
      }

      .cls-7 {
        clip-path: url(#clippath-9);
      }

      .cls-8 {
        clip-path: url(#clippath-8);
      }

      .cls-9 {
        clip-path: url(#clippath-10);
      }
    </style>
    <linearGradient id="Gradiente_sem_nome_9" data-name="Gradiente sem nome 9" x1="-169.64" y1="169.64" x2="986.56" y2="1325.84" gradientUnits="userSpaceOnUse">
      <stop offset="0" stop-color="#702e3d"/>
      <stop offset="1" stop-color="#e34e35"/>
    </linearGradient>
    <clipPath id="clippath-7">
      <path class="cls-4" d="m167.24,242.84h80.76l80.76,142.85v-142.85h92.29v326.51h-80.76l-80.76-142.85v142.85h-92.29V242.84Z"/>
    </clipPath>
    <clipPath id="clippath-8">
      <path class="cls-4" d="m457.52,304.06c0-17.01,5.95-31.46,17.86-43.36,11.9-11.91,26.36-17.86,43.36-17.86h81.63c17.01,0,31.46,5.95,43.36,17.86,11.91,11.9,17.86,26.36,17.86,43.36v265.29h-81.63v-102.03h-40.81v102.03h-81.63v-265.29Zm122.44,0h-40.81v102.03h40.81v-102.03Z"/>
    </clipPath>
    <clipPath id="clippath-9">
      <path class="cls-4" d="m167.24,625.87h101.52v122.44l50.76-81.63v-40.81h101.52v40.81l-50.76,81.63c13.75,0,25.64,4.04,35.69,12.12,10.05,8.08,15.07,17.64,15.07,28.7v163.26h-101.52v-142.85h-50.76v142.85h-101.52v-326.51Z"/>
    </clipPath>
    <clipPath id="clippath-10">
      <path class="cls-4" d="m457.52,687.09c0-17.01,5.95-31.46,17.86-43.36,11.9-11.91,26.36-17.86,43.36-17.86h81.63c17.01,0,31.46,5.95,43.36,17.86,11.91,11.9,17.86,26.36,17.86,43.36v265.29h-81.63v-102.03h-40.81v102.03h-81.63v-265.29Zm122.44,0h-40.81v102.03h40.81v-102.03Z"/>
    </clipPath>
    <clipPath id="clippath-11">
      <path class="cls-4" d="m167.24,1008.9h71.42l55.6,142.85,55.36-142.85h71.42v326.51h-81.63v-142.85l-45.15,122.44-45.4-122.44v142.85h-81.63v-326.51Z"/>
    </clipPath>
    <clipPath id="clippath-12">
      <path class="cls-4" d="m457.52,1070.12c0-17.01,5.95-31.46,17.86-43.36,11.9-11.91,26.36-17.86,43.36-17.86h81.63c17.01,0,31.46,5.95,43.36,17.86,11.91,11.9,17.86,26.36,17.86,43.36v265.29h-81.63v-102.03h-40.81v102.03h-81.63v-265.29Zm122.44,0h-40.81v102.03h40.81v-102.03Z"/>
    </clipPath>
    <clipPath id="clippath-13">
      <path class="cls-4" d="m549.15,160.07h92.45l-61.64,61.64h-61.64l30.82-61.64Z"/>
    </clipPath>
  </defs>
  <rect class="cls-1" width="816.92" height="1495.49"/>
  <g>
    <g>
      <path class="cls-4" d="m167.24,242.84h80.76l80.76,142.85v-142.85h92.29v326.51h-80.76l-80.76-142.85v142.85h-92.29V242.84Z"/>
      <g class="cls-5">
        <rect class="cls-4" x="167.24" y="160.07" width="494.35" height="1175.34"/>
      </g>
    </g>
    <g>
      <path class="cls-4" d="m457.52,304.06c0-17.01,5.95-31.46,17.86-43.36,11.9-11.91,26.36-17.86,43.36-17.86h81.63c17.01,0,31.46,5.95,43.36,17.86,11.91,11.9,17.86,26.36,17.86,43.36v265.29h-81.63v-102.03h-40.81v102.03h-81.63v-265.29Zm122.44,0h-40.81v102.03h40.81v-102.03Z"/>
      <g class="cls-8">
        <rect class="cls-4" x="167.24" y="160.07" width="494.35" height="1175.34"/>
      </g>
    </g>
    <g>
      <path class="cls-4" d="m167.24,625.87h101.52v122.44l50.76-81.63v-40.81h101.52v40.81l-50.76,81.63c13.75,0,25.64,4.04,35.69,12.12,10.05,8.08,15.07,17.64,15.07,28.7v163.26h-101.52v-142.85h-50.76v142.85h-101.52v-326.51Z"/>
      <g class="cls-7">
        <rect class="cls-4" x="167.24" y="160.07" width="494.35" height="1175.34"/>
      </g>
    </g>
    <g>
      <path class="cls-4" d="m457.52,687.09c0-17.01,5.95-31.46,17.86-43.36,11.9-11.91,26.36-17.86,43.36-17.86h81.63c17.01,0,31.46,5.95,43.36,17.86,11.91,11.9,17.86,26.36,17.86,43.36v265.29h-81.63v-102.03h-40.81v102.03h-81.63v-265.29Zm122.44,0h-40.81v102.03h40.81v-102.03Z"/>
      <g class="cls-9">
        <rect class="cls-4" x="167.24" y="160.07" width="494.35" height="1175.34"/>
      </g>
    </g>
    <g>
      <path class="cls-4" d="m167.24,1008.9h71.42l55.6,142.85,55.36-142.85h71.42v326.51h-81.63v-142.85l-45.15,122.44-45.4-122.44v142.85h-81.63v-326.51Z"/>
      <g class="cls-2">
        <rect class="cls-4" x="167.24" y="160.07" width="494.35" height="1175.34"/>
      </g>
    </g>
    <g>
      <path class="cls-4" d="m457.52,1070.12c0-17.01,5.95-31.46,17.86-43.36,11.9-11.91,26.36-17.86,43.36-17.86h81.63c17.01,0,31.46,5.95,43.36,17.86,11.91,11.9,17.86,26.36,17.86,43.36v265.29h-81.63v-102.03h-40.81v102.03h-81.63v-265.29Zm122.44,0h-40.81v102.03h40.81v-102.03Z"/>
      <g class="cls-6">
        <rect class="cls-4" x="167.24" y="160.07" width="494.35" height="1175.34"/>
      </g>
    </g>
    <g>
      <path class="cls-4" d="m549.15,160.07h92.45l-61.64,61.64h-61.64l30.82-61.64Z"/>
      <g class="cls-3">
        <rect class="cls-4" x="167.24" y="160.07" width="494.35" height="1175.34"/>
      </g>
    </g>
  </g>
</svg>