<?xml version="1.0" encoding="UTF-8"?>
<svg id="Camada_1" data-name="Camada 1" xmlns="http://www.w3.org/2000/svg" xmlns:xlink="http://www.w3.org/1999/xlink" viewBox="0 0 1411.61 454.99">
  <defs>
    <style>
      .cls-1 {
        fill: url(#Gradiente_sem_nome_9);
      }

      .cls-2 {
        clip-path: url(#clippath-2);
      }

      .cls-3 {
        clip-path: url(#clippath-6);
      }

      .cls-4 {
        clip-path: url(#clippath-1);
      }

      .cls-5 {
        clip-path: url(#clippath-4);
      }

      .cls-6 {
        clip-path: url(#clippath);
      }

      .cls-7 {
        fill: none;
      }

      .cls-8 {
        clip-path: url(#clippath-3);
      }

      .cls-9 {
        clip-path: url(#clippath-5);
      }
    </style>
    <clipPath id="clippath">
      <path class="cls-7" d="m115.68,133.08h55.08l55.07,110.15v-110.15h62.94v251.77h-55.07l-55.08-110.15v110.15h-62.94v-251.77Z"/>
    </clipPath>
    <linearGradient id="Gradiente_sem_nome_9" data-name="Gradiente sem nome 9" x1="332.06" y1="-146.25" x2="1079.54" y2="601.23" gradientUnits="userSpaceOnUse">
      <stop offset="0" stop-color="#702e3d"/>
      <stop offset="1" stop-color="#e34e35"/>
    </linearGradient>
    <clipPath id="clippath-1">
      <path class="cls-7" d="m320.26,180.29c0-13.11,4.59-24.26,13.77-33.44,9.18-9.18,20.32-13.77,33.44-13.77h62.94c13.12,0,24.26,4.59,33.44,13.77,9.18,9.18,13.77,20.33,13.77,33.44v204.57h-62.94v-78.68h-31.47v78.68h-62.94v-204.57Zm94.42,0h-31.47v78.68h31.47v-78.68Z"/>
    </clipPath>
    <clipPath id="clippath-2">
      <path class="cls-7" d="m509.1,133.08h62.94v94.42l31.47-62.94v-31.47h62.94v31.47l-31.47,62.94c8.52,0,15.9,3.12,22.13,9.35,6.23,6.23,9.35,13.61,9.35,22.13v125.89h-62.94v-110.15h-31.47v110.15h-62.94v-251.77Z"/>
    </clipPath>
    <clipPath id="clippath-3">
      <path class="cls-7" d="m697.94,180.29c0-13.11,4.59-24.26,13.77-33.44,9.18-9.18,20.32-13.77,33.44-13.77h62.94c13.12,0,24.26,4.59,33.44,13.77,9.18,9.18,13.77,20.33,13.77,33.44v204.57h-62.94v-78.68h-31.47v78.68h-62.94v-204.57Zm94.42,0h-31.47v78.68h31.47v-78.68Z"/>
    </clipPath>
    <clipPath id="clippath-4">
      <path class="cls-7" d="m886.78,133.08h55.07l55.08,110.15,55.08-110.15h55.07v251.77h-62.94v-110.15l-47.21,94.42-47.21-94.42v110.15h-62.94v-251.77Z"/>
    </clipPath>
    <clipPath id="clippath-5">
      <path class="cls-7" d="m1138.57,180.29c0-13.11,4.59-24.26,13.77-33.44,9.18-9.18,20.32-13.77,33.44-13.77h62.94c13.12,0,24.26,4.59,33.44,13.77,9.18,9.18,13.77,20.33,13.77,33.44v204.57h-62.94v-78.68h-31.47v78.68h-62.94v-204.57Zm94.42,0h-31.47v78.68h31.47v-78.68Z"/>
    </clipPath>
    <clipPath id="clippath-6">
      <polygon class="cls-7" points="391.08 70.13 461.88 70.13 414.68 117.34 367.47 117.34 391.08 70.13"/>
    </clipPath>
  </defs>
  <g class="cls-6">
    <rect class="cls-1" x="115.68" y="70.13" width="1180.25" height="314.72"/>
  </g>
  <g class="cls-4">
    <rect class="cls-1" x="115.68" y="70.13" width="1180.25" height="314.72"/>
  </g>
  <g class="cls-2">
    <rect class="cls-1" x="115.68" y="70.13" width="1180.25" height="314.72"/>
  </g>
  <g class="cls-8">
    <rect class="cls-1" x="115.68" y="70.13" width="1180.25" height="314.72"/>
  </g>
  <g class="cls-5">
    <rect class="cls-1" x="115.68" y="70.13" width="1180.25" height="314.72"/>
  </g>
  <g class="cls-9">
    <rect class="cls-1" x="115.68" y="70.13" width="1180.25" height="314.72"/>
  </g>
  <g class="cls-3">
    <rect class="cls-1" x="115.68" y="70.13" width="1180.25" height="314.72"/>
  </g>
</svg>