<?xml version="1.0" encoding="UTF-8"?>
<svg id="Camada_1" data-name="Camada 1" xmlns="http://www.w3.org/2000/svg" viewBox="0 0 1411.61 454.99">
  <defs>
    <style>
      .cls-1 {
        fill: #faedf2;
      }
    </style>
  </defs>
  <path class="cls-1" d="m115.68,133.08h55.08l55.07,110.15v-110.15h62.94v251.77h-55.07l-55.08-110.15v110.15h-62.94v-251.77Z"/>
  <path class="cls-1" d="m320.26,180.29c0-13.11,4.59-24.26,13.77-33.44,9.18-9.18,20.32-13.77,33.44-13.77h62.94c13.12,0,24.26,4.59,33.44,13.77,9.18,9.18,13.77,20.33,13.77,33.44v204.57h-62.94v-78.68h-31.47v78.68h-62.94v-204.57Zm70.81-110.15h70.81l-47.21,47.21h-47.21l23.61-47.21Zm23.6,110.15h-31.47v78.68h31.47v-78.68Z"/>
  <path class="cls-1" d="m509.1,133.08h62.94v94.42l31.47-62.94v-31.47h62.94v31.47l-31.47,62.94c8.52,0,15.9,3.12,22.13,9.35,6.23,6.23,9.35,13.61,9.35,22.13v125.89h-62.94v-110.15h-31.47v110.15h-62.94v-251.77Z"/>
  <path class="cls-1" d="m697.94,180.29c0-13.11,4.59-24.26,13.77-33.44,9.18-9.18,20.32-13.77,33.44-13.77h62.94c13.12,0,24.26,4.59,33.44,13.77,9.18,9.18,13.77,20.33,13.77,33.44v204.57h-62.94v-78.68h-31.47v78.68h-62.94v-204.57Zm94.42,0h-31.47v78.68h31.47v-78.68Z"/>
  <path class="cls-1" d="m886.78,133.08h55.07l55.08,110.15,55.08-110.15h55.07v251.77h-62.94v-110.15l-47.21,94.42-47.21-94.42v110.15h-62.94v-251.77Z"/>
  <path class="cls-1" d="m1138.57,180.29c0-13.11,4.59-24.26,13.77-33.44,9.18-9.18,20.32-13.77,33.44-13.77h62.94c13.12,0,24.26,4.59,33.44,13.77,9.18,9.18,13.77,20.33,13.77,33.44v204.57h-62.94v-78.68h-31.47v78.68h-62.94v-204.57Zm94.42,0h-31.47v78.68h31.47v-78.68Z"/>
</svg>