<?xml version="1.0" encoding="UTF-8"?>
<svg id="Camada_1" data-name="Camada 1" xmlns="http://www.w3.org/2000/svg" xmlns:xlink="http://www.w3.org/1999/xlink" viewBox="0 0 1244.16 1244.16">
  <defs>
    <style>
      .cls-1 {
        clip-path: url(#clippath-2);
      }

      .cls-2 {
        fill: #faedf2;
      }

      .cls-3 {
        clip-path: url(#clippath-1);
      }

      .cls-4 {
        clip-path: url(#clippath);
      }
    </style>
    <clipPath id="clippath">
      <path class="cls-2" d="m972.13,821.24c-108.57,71.43-277.14,0-277.14,0-162.63-61.32-219.49-227-226.38-248.91-28.29,17.85-55.47,40.97-78.34,64.44,39.87,121.68,186.14,224.47,186.14,224.47-98.56,64.29-205.7,55.71-205.7,55.71-25.14-14.21-59.41-62.59-74.15-84.59l-88.52,42.76c86.45,142.7,242.74,238.38,421.78,238.38s336.03-96.12,422.37-239.36l-80.05-52.9Zm-471.43,172.85c58.57,0,174.28-87.14,174.28-87.14,72.86,38.57,185.71,34.29,185.71,34.29-185.71,144.29-360,52.86-360,52.86Z"/>
    </clipPath>
    <clipPath id="clippath-1">
      <path class="cls-2" d="m1067.63,392.95c-2.45-4.68-4.89-9.37-7.39-13.89-82.88-147.88-239.62-248.45-420.33-252.12-.05,0-.23.02-.23.02l-4.34,95.79c117,56.56,142.15,237.91,142.15,237.91,30.11,167.34-77.23,298.74-96.23,320.44,29.63,14.35,62.44,25.28,96.76,32.54,81.6-97.31,94.62-271.72,94.62-271.72,105.75,51.64,153.35,148.01,153.35,148.01.67,28.22-22.26,80.78-33.85,105.49l75.98,50.22c34.97-67.72,55.05-144.38,55.05-225.84s-20.25-158.89-55.54-226.85Zm-206.31,40.91c-4.25-82.33-65.82-177.01-65.82-177.01,219.12,85.42,230.03,281.92,230.03,281.92-30.05-50.28-164.21-104.91-164.21-104.91Z"/>
    </clipPath>
    <clipPath id="clippath-2">
      <path class="cls-2" d="m737.01,401.08c-121.98-30.42-290.55,44.6-290.55,44.6-4.78-117.58,57.67-205.25,57.67-205.25,22.23-12.71,70.65-17.78,100.18-19.76l4.22-93.17c-107.6,4.6-206.2,43.32-285.19,106.09-5.21,4.21-10.36,8.43-15.18,12.6-7.94,6.85-15.77,13.82-23.27,21.15-2.73,2.62-5.03,5.04-7.57,7.58-87.06,88.96-140.89,210.57-140.89,344.87,0,82.25,20.42,159.63,56.01,227.82l85.93-41.5c-5.8-129.83,141.8-238.1,141.8-238.1,145.64-116.1,332.24-66.47,332.24-66.47,1.04-28.81-11.4-91.55-15.4-100.47Zm-380.28,105.89c-70.42,42.85-124.49,142-124.49,142-28.92-233.39,138.83-336.33,138.83-336.33-29.98,50.32-14.34,194.33-14.34,194.33Z"/>
    </clipPath>
  </defs>
  <g>
    <path class="cls-2" d="m972.13,821.24c-108.57,71.43-277.14,0-277.14,0-162.63-61.32-219.49-227-226.38-248.91-28.29,17.85-55.47,40.97-78.34,64.44,39.87,121.68,186.14,224.47,186.14,224.47-98.56,64.29-205.7,55.71-205.7,55.71-25.14-14.21-59.41-62.59-74.15-84.59l-88.52,42.76c86.45,142.7,242.74,238.38,421.78,238.38s336.03-96.12,422.37-239.36l-80.05-52.9Zm-471.43,172.85c58.57,0,174.28-87.14,174.28-87.14,72.86,38.57,185.71,34.29,185.71,34.29-185.71,144.29-360,52.86-360,52.86Z"/>
    <g class="cls-4">
      <rect class="cls-2" x="113.94" y="104.37" width="1031.71" height="1031.71"/>
    </g>
  </g>
  <g>
    <path class="cls-2" d="m1067.63,392.95c-2.45-4.68-4.89-9.37-7.39-13.89-82.88-147.88-239.62-248.45-420.33-252.12-.05,0-.23.02-.23.02l-4.34,95.79c117,56.56,142.15,237.91,142.15,237.91,30.11,167.34-77.23,298.74-96.23,320.44,29.63,14.35,62.44,25.28,96.76,32.54,81.6-97.31,94.62-271.72,94.62-271.72,105.75,51.64,153.35,148.01,153.35,148.01.67,28.22-22.26,80.78-33.85,105.49l75.98,50.22c34.97-67.72,55.05-144.38,55.05-225.84s-20.25-158.89-55.54-226.85Zm-206.31,40.91c-4.25-82.33-65.82-177.01-65.82-177.01,219.12,85.42,230.03,281.92,230.03,281.92-30.05-50.28-164.21-104.91-164.21-104.91Z"/>
    <g class="cls-3">
      <rect class="cls-2" x="113.94" y="104.37" width="1031.71" height="1031.71"/>
    </g>
  </g>
  <g>
    <path class="cls-2" d="m737.01,401.08c-121.98-30.42-290.55,44.6-290.55,44.6-4.78-117.58,57.67-205.25,57.67-205.25,22.23-12.71,70.65-17.78,100.18-19.76l4.22-93.17c-107.6,4.6-206.2,43.32-285.19,106.09-5.21,4.21-10.36,8.43-15.18,12.6-7.94,6.85-15.77,13.82-23.27,21.15-2.73,2.62-5.03,5.04-7.57,7.58-87.06,88.96-140.89,210.57-140.89,344.87,0,82.25,20.42,159.63,56.01,227.82l85.93-41.5c-5.8-129.83,141.8-238.1,141.8-238.1,145.64-116.1,332.24-66.47,332.24-66.47,1.04-28.81-11.4-91.55-15.4-100.47Zm-380.28,105.89c-70.42,42.85-124.49,142-124.49,142-28.92-233.39,138.83-336.33,138.83-336.33-29.98,50.32-14.34,194.33-14.34,194.33Z"/>
    <g class="cls-1">
      <rect class="cls-2" x="113.94" y="104.37" width="1031.71" height="1031.71"/>
    </g>
  </g>
</svg>