<?xml version="1.0" encoding="UTF-8"?>
<svg id="Camada_1" data-name="Camada 1" xmlns="http://www.w3.org/2000/svg" xmlns:xlink="http://www.w3.org/1999/xlink" viewBox="0 0 1552.02 1552.02">
  <defs>
    <style>
      .cls-1 {
        clip-path: url(#clippath-2);
      }

      .cls-2 {
        fill: #faedf2;
      }

      .cls-3 {
        clip-path: url(#clippath-6);
      }

      .cls-4 {
        clip-path: url(#clippath-1);
      }

      .cls-5 {
        clip-path: url(#clippath-4);
      }

      .cls-6 {
        clip-path: url(#clippath);
      }

      .cls-7 {
        clip-path: url(#clippath-3);
      }

      .cls-8 {
        clip-path: url(#clippath-5);
      }
    </style>
    <clipPath id="clippath">
      <path class="cls-2" d="m137.95,319.2h73.06l73.06,129.24v-129.24h83.5v295.41h-73.06l-73.06-129.24v129.24h-83.5v-295.41Z"/>
    </clipPath>
    <clipPath id="clippath-1">
      <path class="cls-2" d="m400.58,374.59c0-15.39,5.38-28.47,16.16-39.23,10.76-10.78,23.85-16.16,39.23-16.16h73.85c15.39,0,28.47,5.38,39.23,16.16,10.78,10.76,16.16,23.85,16.16,39.23v240.02h-73.85v-92.31h-36.93v92.31h-73.85v-240.02Zm110.78,0h-36.93v92.31h36.93v-92.31Z"/>
    </clipPath>
    <clipPath id="clippath-2">
      <path class="cls-2" d="m137.95,665.75h91.85v110.78l45.93-73.85v-36.93h91.85v36.93l-45.93,73.85c12.44,0,23.2,3.65,32.29,10.96,9.09,7.31,13.64,15.96,13.64,25.96v147.7h-91.85v-129.24h-45.93v129.24h-91.85v-295.41Z"/>
    </clipPath>
    <clipPath id="clippath-3">
      <path class="cls-2" d="m400.58,721.14c0-15.39,5.38-28.47,16.16-39.23,10.76-10.78,23.85-16.16,39.23-16.16h73.85c15.39,0,28.47,5.38,39.23,16.16,10.78,10.76,16.16,23.85,16.16,39.23v240.02h-73.85v-92.31h-36.93v92.31h-73.85v-240.02Zm110.78,0h-36.93v92.31h36.93v-92.31Z"/>
    </clipPath>
    <clipPath id="clippath-4">
      <path class="cls-2" d="m137.95,1012.29h64.62l50.3,129.24,50.08-129.24h64.62v295.41h-73.85v-129.24l-40.85,110.78-41.07-110.78v129.24h-73.85v-295.41Z"/>
    </clipPath>
    <clipPath id="clippath-5">
      <path class="cls-2" d="m400.58,1067.68c0-15.39,5.38-28.47,16.16-39.23,10.76-10.78,23.85-16.16,39.23-16.16h73.85c15.39,0,28.47,5.38,39.23,16.16,10.78,10.76,16.16,23.85,16.16,39.23v240.02h-73.85v-92.31h-36.93v92.31h-73.85v-240.02Zm110.78,0h-36.93v92.31h36.93v-92.31Z"/>
    </clipPath>
    <clipPath id="clippath-6">
      <path class="cls-2" d="m483.48,244.32h83.64l-55.76,55.76h-55.76l27.89-55.76Z"/>
    </clipPath>
  </defs>
  <g>
    <path class="cls-2" d="m137.95,319.2h73.06l73.06,129.24v-129.24h83.5v295.41h-73.06l-73.06-129.24v129.24h-83.5v-295.41Z"/>
    <g class="cls-6">
      <rect class="cls-2" x="137.95" y="244.32" width="447.26" height="1063.38"/>
    </g>
  </g>
  <g>
    <path class="cls-2" d="m400.58,374.59c0-15.39,5.38-28.47,16.16-39.23,10.76-10.78,23.85-16.16,39.23-16.16h73.85c15.39,0,28.47,5.38,39.23,16.16,10.78,10.76,16.16,23.85,16.16,39.23v240.02h-73.85v-92.31h-36.93v92.31h-73.85v-240.02Zm110.78,0h-36.93v92.31h36.93v-92.31Z"/>
    <g class="cls-4">
      <rect class="cls-2" x="137.95" y="244.32" width="447.26" height="1063.38"/>
    </g>
  </g>
  <g>
    <path class="cls-2" d="m137.95,665.75h91.85v110.78l45.93-73.85v-36.93h91.85v36.93l-45.93,73.85c12.44,0,23.2,3.65,32.29,10.96,9.09,7.31,13.64,15.96,13.64,25.96v147.7h-91.85v-129.24h-45.93v129.24h-91.85v-295.41Z"/>
    <g class="cls-1">
      <rect class="cls-2" x="137.95" y="244.32" width="447.26" height="1063.38"/>
    </g>
  </g>
  <g>
    <path class="cls-2" d="m400.58,721.14c0-15.39,5.38-28.47,16.16-39.23,10.76-10.78,23.85-16.16,39.23-16.16h73.85c15.39,0,28.47,5.38,39.23,16.16,10.78,10.76,16.16,23.85,16.16,39.23v240.02h-73.85v-92.31h-36.93v92.31h-73.85v-240.02Zm110.78,0h-36.93v92.31h36.93v-92.31Z"/>
    <g class="cls-7">
      <rect class="cls-2" x="137.95" y="244.32" width="447.26" height="1063.38"/>
    </g>
  </g>
  <g>
    <path class="cls-2" d="m137.95,1012.29h64.62l50.3,129.24,50.08-129.24h64.62v295.41h-73.85v-129.24l-40.85,110.78-41.07-110.78v129.24h-73.85v-295.41Z"/>
    <g class="cls-5">
      <rect class="cls-2" x="137.95" y="244.32" width="447.26" height="1063.38"/>
    </g>
  </g>
  <g>
    <path class="cls-2" d="m400.58,1067.68c0-15.39,5.38-28.47,16.16-39.23,10.76-10.78,23.85-16.16,39.23-16.16h73.85c15.39,0,28.47,5.38,39.23,16.16,10.78,10.76,16.16,23.85,16.16,39.23v240.02h-73.85v-92.31h-36.93v92.31h-73.85v-240.02Zm110.78,0h-36.93v92.31h36.93v-92.31Z"/>
    <g class="cls-8">
      <rect class="cls-2" x="137.95" y="244.32" width="447.26" height="1063.38"/>
    </g>
  </g>
  <g>
    <path class="cls-2" d="m483.48,244.32h83.64l-55.76,55.76h-55.76l27.89-55.76Z"/>
    <g class="cls-3">
      <rect class="cls-2" x="137.95" y="244.32" width="447.26" height="1063.38"/>
    </g>
  </g>
  <g>
    <path class="cls-2" d="m689.72,665.75h49.13c8.18,0,14.94,2.67,20.25,7.99,4.91,4.91,7.37,11.46,7.37,19.64,0,6.55-2.25,12.08-6.75,16.58-2.46,2.46-5.52,4.3-9.2,5.53,4.91,1.64,8.79,3.89,11.67,6.75,4.91,4.92,7.37,11.05,7.37,18.42,0,9.01-3.08,16.58-9.21,22.72-4.91,4.91-12.29,7.37-22.11,7.37h-48.5v-104.99Zm14.13,11.67v32.54h33.15c4.09,0,7.57-1.43,10.43-4.3,3.27-3.27,4.91-7.57,4.91-12.89,0-4.5-1.64-8.39-4.91-11.67-2.46-2.46-5.52-3.69-9.21-3.69h-34.38Zm0,44.21v37.45h31.31c6.14,0,10.84-1.63,14.12-4.91,3.69-3.68,5.52-8.18,5.52-13.51,0-5.73-1.64-10.22-4.91-13.5-3.68-3.69-8.59-5.53-14.73-5.53h-31.31Z"/>
    <path class="cls-2" d="m856.97,700.74v13.51c-1.64-.4-3.89-.61-6.75-.61-6.13,0-11.88,2.67-17.19,7.98-4.51,4.51-7.58,9.21-9.21,14.12v35h-12.28v-68.76h12.28v17.19c2.04-3.27,4.3-6.14,6.75-8.6,6.54-6.54,15.34-9.82,26.4-9.82Z"/>
    <path class="cls-2" d="m897.73,707.5c4.5-4.49,11.05-6.75,19.65-6.75,10.22,0,17.59,2.26,22.1,6.75,4.09,4.1,6.14,8.81,6.14,14.12v38.68c0,4.5,1.63,7.98,4.91,10.43h-14.74c-1.64-1.63-2.46-4.3-2.46-7.98-6.13,6.13-13.92,9.21-23.33,9.21-7.77,0-13.71-2.05-17.8-6.14-3.69-3.68-5.53-7.98-5.53-12.89,0-5.74,1.84-10.44,5.53-14.12,4.09-4.1,9.82-6.75,17.19-7.99,4.91-.82,9.21-1.84,12.9-3.07,5.31-1.23,9-2.46,11.04-3.69,0-3.27-1.22-6.13-3.68-8.59-2.46-2.46-5.94-3.69-10.44-3.69-5.74,0-9.82,1.22-12.28,3.69-1.64,1.64-2.87,3.89-3.69,6.75h-13.5c1.22-5.73,3.88-10.64,7.98-14.73Zm35.61,28.24c-2.46.82-4.71,1.44-6.75,1.84-6.96,1.64-12.28,2.87-15.96,3.69-3.28.82-5.74,2.05-7.37,3.68-2.05,2.06-3.07,4.3-3.07,6.75,0,2.87,1.02,5.33,3.07,7.37,1.23,1.23,3.89,1.84,7.99,1.84,6.96,0,12.68-2.24,17.19-6.75,2.86-2.85,4.5-4.91,4.91-6.14v-12.28Z"/>
    <path class="cls-2" d="m1001.11,770.73h-12.28v-68.76h12.28v12.28c7.37-9,15.14-13.51,23.33-13.51s14.74,2.46,19.65,7.37c3.27,3.29,4.91,7.17,4.91,11.67v50.96h-12.29v-47.27c0-3.69-1.22-6.75-3.68-9.21-2.46-2.46-5.94-3.69-10.44-3.69-4.1,0-8.19,2.06-12.28,6.14-6.13,6.14-9.21,12.69-9.21,19.64v34.38Z"/>
    <path class="cls-2" d="m1139.51,665.75h12.28v104.99h-12.28v-8.59c-4.51,6.55-10.65,9.82-18.42,9.82-8.6,0-15.35-2.46-20.26-7.37-7.37-7.37-11.05-16.78-11.05-28.25,0-12.28,3.27-21.68,9.83-28.24,5.31-5.31,11.67-7.98,19.03-7.98,9,0,15.96,3.48,20.88,10.43v-44.82Zm-30.08,50.35c-4.1,4.1-6.14,10.85-6.14,20.25s2.24,15.77,6.75,20.26c2.86,2.87,6.34,4.3,10.44,4.3,4.91,0,9-1.63,12.28-4.91,4.49-4.5,6.75-11.05,6.75-19.65s-2.46-15.34-7.37-20.25c-3.29-3.27-7.17-4.91-11.67-4.91-4.1,0-7.78,1.64-11.05,4.91Z"/>
    <path class="cls-2" d="m1193.78,666.36h12.29v15.96h-12.29v-15.96Zm0,35.62h12.29v68.76h-12.29v-68.76Z"/>
    <path class="cls-2" d="m1261.56,770.73h-12.28v-68.76h12.28v12.28c7.37-9,15.14-13.51,23.33-13.51s14.74,2.46,19.65,7.37c3.27,3.29,4.91,7.17,4.91,11.67v50.96h-12.29v-47.27c0-3.69-1.22-6.75-3.68-9.21s-5.94-3.69-10.44-3.69c-4.1,0-8.19,2.06-12.28,6.14-6.13,6.14-9.21,12.69-9.21,19.64v34.38Z"/>
    <path class="cls-2" d="m1359.42,707.5c4.5-4.49,10.23-6.75,17.2-6.75,6.54,0,12.28,2.06,17.19,6.14,4.09-4.09,9-6.14,14.73-6.14h5.53v11.67c-4.91-2.04-10.44-2.24-16.58-.61,2.85,3.69,4.3,7.98,4.3,12.89,0,7.37-2.26,13.31-6.75,17.81-4.1,4.1-10.03,6.14-17.81,6.14-4.1,0-8.39-1.02-12.9-3.08-2.05,1.64-3.07,3.29-3.07,4.92,0,1.22.41,2.25,1.23,3.07,2.04,2.05,6.75,3.28,14.12,3.68,6.54.42,13.51.82,20.88,1.23,4.09.82,7.15,2.25,9.21,4.3,3.27,3.28,4.91,7.16,4.91,11.67,0,4.91-1.64,9-4.91,12.28-4.51,4.5-14.33,6.75-29.47,6.75-12.69,0-21.28-2.25-25.79-6.75-2.87-2.87-4.3-6.35-4.3-10.43,0-2.87,1.02-5.32,3.07-7.37,1.63-1.63,4.09-3.27,7.37-4.91-1.23-.82-2.67-2.04-4.3-3.68-2.06-2.05-3.08-4.71-3.08-7.99,0-4.09,3.08-7.98,9.21-11.67-4.5-4.49-6.75-9.82-6.75-15.96,0-6.95,2.25-12.68,6.75-17.19Zm7.37,59.56c-2.87.82-4.92,1.83-6.14,3.07-1.64,1.64-2.46,3.47-2.46,5.52s.82,3.89,2.46,5.53c2.46,2.46,7.77,3.68,15.96,3.68,11.04,0,18-1.44,20.88-4.3,1.63-1.64,2.46-3.28,2.46-4.91s-.62-3.07-1.84-4.3c-1.64-1.63-4.51-2.46-8.6-2.46-9.82-.4-17.4-1.01-22.71-1.83Zm2.46-52.8c-2.87,2.87-4.3,6.35-4.3,10.43s1.22,7.37,3.68,9.83c2.46,2.46,5.32,3.68,8.6,3.68,3.69,0,6.54-1.01,8.6-3.07,2.46-2.46,3.68-5.93,3.68-10.44,0-4.09-1.44-7.56-4.3-10.43-2.05-2.05-4.91-3.07-8.59-3.07-2.87,0-5.33,1.02-7.37,3.07Z"/>
    <path class="cls-2" d="m704.46,860.5c4.91-4.91,10.43-7.37,16.58-7.37,6.96,0,12.48,2.05,16.58,6.13,4.5,4.51,6.75,10.03,6.75,16.58,0,7.37-2.46,13.51-7.37,18.42-3.69,3.69-9.01,7.17-15.96,10.44,11.05,14.73,20.05,24.15,27.01,28.24,2.46-4.5,3.69-11.05,3.69-19.65h12.9c-.42,9.42-2.67,18.42-6.75,27.02,4.91,3.28,9.4,5.52,13.5,6.75l-4.91,12.28c-2.86-.82-8.39-4.09-16.58-9.82-7.77,7.37-18.22,11.05-31.31,11.05-11.05,0-19.45-2.86-25.17-8.6-5.74-5.73-8.6-12.28-8.6-19.64,0-8.6,3.27-16.17,9.83-22.72,2.85-2.86,6.54-5.73,11.04-8.6-5.74-8.59-8.59-16.16-8.59-22.72,0-6.95,2.46-12.89,7.37-17.8Zm-6.14,71.83c0,4.5,1.63,8.39,4.91,11.67,3.69,3.68,8.8,5.52,15.35,5.52,9.41,0,16.78-2.46,22.1-7.37-10.23-9-20.06-19.85-29.46-32.54-2.06,1.22-4.1,2.86-6.14,4.91-4.51,4.51-6.75,10.43-6.75,17.81Zm14.73-65.08c-2.46,2.46-3.68,6.35-3.68,11.67,0,4.91,2.04,10.65,6.14,17.19,4.91-2.46,8.59-4.91,11.04-7.37,3.69-3.69,5.53-7.77,5.53-12.28,0-3.69-1.23-6.75-3.69-9.21-2.06-2.05-4.71-3.08-7.98-3.08-2.87,0-5.33,1.03-7.37,3.08Z"/>
    <path class="cls-2" d="m878.08,854.36h36.84c12.29,0,22.72,4.3,31.32,12.9,9,9.01,13.5,22.51,13.5,40.52s-4.71,30.5-14.12,39.91c-7.77,7.78-18.01,11.67-30.7,11.67h-36.84v-104.99Zm14.13,11.67v81.66h22.1c7.77,0,14.12-2.46,19.03-7.37,7.77-7.77,11.67-18.62,11.67-32.54,0-14.73-3.68-25.79-11.05-33.15-5.74-5.73-12.28-8.6-19.64-8.6h-22.1Z"/>
    <path class="cls-2" d="m1010.95,897.95c5.73-5.73,13.09-8.6,22.1-8.6s15.96,3.08,22.11,9.21c5.73,5.74,8.59,14.54,8.59,26.4h-49.73c0,8.6,2.04,14.95,6.14,19.04,3.68,3.68,8.38,5.52,14.12,5.52s9.82-1.23,12.28-3.69c2.85-2.85,4.3-6.13,4.3-9.82h13.51c-1.65,7.37-4.3,12.9-7.99,16.58-5.33,5.33-12.69,7.99-22.1,7.99s-17.81-3.08-23.95-9.21c-6.55-6.54-9.82-15.35-9.82-26.41s3.47-20.04,10.44-27.01Zm9.21,6.75c-2.87,2.86-4.72,6.35-5.53,10.43h35c0-4.09-1.64-7.76-4.91-11.04-2.86-2.86-6.97-4.3-12.28-4.3-4.91,0-9.01,1.64-12.28,4.91Z"/>
    <path class="cls-2" d="m1110.04,896.72c4.91-4.91,11.87-7.37,20.88-7.37,9.82,0,16.98,2.26,21.49,6.75,4.09,4.1,6.14,8.6,6.14,13.51h-12.28c-.42-2.86-1.23-4.91-2.46-6.14-2.46-2.46-6.97-3.68-13.51-3.68-4.1,0-7.37,1.22-9.82,3.68-2.06,2.06-3.08,4.3-3.08,6.75,0,1.64.62,3.07,1.84,4.3,1.63,1.64,6.75,3.48,15.35,5.52,5.31,1.23,9.82,2.46,13.51,3.69,3.27,1.22,5.73,2.67,7.37,4.3,3.27,3.28,4.91,7.16,4.91,11.67,0,4.91-2.06,9.42-6.14,13.51-4.91,4.91-12.49,7.37-22.71,7.37s-17.81-2.46-22.72-7.37c-4.1-4.09-6.14-9.21-6.14-15.35h12.28c.41,3.69,1.44,6.35,3.08,7.98,2.85,2.87,7.15,4.3,12.89,4.3,6.96,0,11.67-1.22,14.12-3.68,1.63-1.63,2.46-3.69,2.46-6.14,0-1.63-1.02-3.47-3.07-5.52-1.64-1.63-4.3-2.86-7.98-3.69-7.37-1.63-12.9-3.07-16.58-4.3-4.51-1.22-7.78-2.85-9.83-4.91-3.68-3.68-5.52-7.57-5.52-11.67,0-5.31,1.84-9.82,5.52-13.51Z"/>
    <path class="cls-2" d="m1201.75,854.97h12.29v15.96h-12.29v-15.96Zm0,35.62h12.29v68.76h-12.29v-68.76Z"/>
    <path class="cls-2" d="m1265.24,896.11c4.5-4.49,10.23-6.75,17.2-6.75,6.54,0,12.28,2.06,17.19,6.14,4.09-4.09,9-6.14,14.73-6.14h5.53v11.67c-4.91-2.04-10.44-2.24-16.58-.61,2.85,3.69,4.3,7.98,4.3,12.89,0,7.37-2.26,13.31-6.75,17.81-4.1,4.1-10.03,6.14-17.81,6.14-4.1,0-8.39-1.02-12.9-3.08-2.05,1.64-3.07,3.29-3.07,4.92,0,1.22.41,2.25,1.23,3.07,2.04,2.05,6.75,3.28,14.12,3.68,6.54.42,13.51.82,20.88,1.23,4.09.82,7.15,2.25,9.21,4.3,3.27,3.28,4.91,7.16,4.91,11.67,0,4.91-1.64,9-4.91,12.28-4.51,4.5-14.33,6.75-29.47,6.75-12.69,0-21.28-2.25-25.79-6.75-2.87-2.87-4.3-6.35-4.3-10.43,0-2.87,1.02-5.32,3.07-7.37,1.63-1.63,4.09-3.27,7.37-4.91-1.23-.82-2.67-2.04-4.3-3.68-2.06-2.05-3.08-4.71-3.08-7.99,0-4.09,3.08-7.98,9.21-11.67-4.5-4.49-6.75-9.82-6.75-15.96,0-6.95,2.25-12.68,6.75-17.19Zm7.37,59.56c-2.87.82-4.92,1.83-6.14,3.07-1.64,1.64-2.46,3.47-2.46,5.52s.82,3.89,2.46,5.53c2.46,2.46,7.77,3.68,15.96,3.68,11.04,0,18-1.44,20.88-4.3,1.63-1.64,2.46-3.28,2.46-4.91s-.62-3.07-1.84-4.3c-1.64-1.63-4.51-2.46-8.6-2.46-9.82-.4-17.4-1.01-22.71-1.83Zm2.46-52.8c-2.87,2.87-4.3,6.35-4.3,10.43s1.22,7.37,3.68,9.83c2.46,2.46,5.32,3.68,8.6,3.68,3.69,0,6.54-1.01,8.6-3.07,2.46-2.46,3.68-5.93,3.68-10.44,0-4.09-1.44-7.56-4.3-10.43-2.05-2.05-4.91-3.07-8.59-3.07-2.87,0-5.33,1.02-7.37,3.07Z"/>
    <path class="cls-2" d="m1365.56,959.34h-12.28v-68.76h12.28v12.28c7.37-9,15.14-13.51,23.33-13.51s14.74,2.46,19.65,7.37c3.27,3.29,4.91,7.17,4.91,11.67v50.96h-12.29v-47.27c0-3.69-1.22-6.75-3.68-9.21-2.46-2.46-5.94-3.69-10.44-3.69-4.1,0-8.19,2.06-12.28,6.14-6.13,6.14-9.21,12.69-9.21,19.64v34.38Z"/>
  </g>
  <g>
    <path class="cls-2" d="m783.49,1122.83l-.85,18.62c21.91,10.59,26.62,44.54,26.62,44.54,5.23,29.04-11.65,52.29-16.99,58.78,4.69,2.22,10.78,4.5,18.13,6.01,14.35-18.43,16.68-49.58,16.68-49.58,19.8,9.67,28.71,27.71,28.71,27.71.09,3.63-1.91,9.41-3.88,14.17l14.2,9.38c5.03-11.41,7.87-23.99,7.87-37.26,0-50.41-40.34-91.31-90.49-92.38Zm41.47,58.14c-.8-15.41-12.33-33.14-12.33-33.14,41.02,15.99,43.07,52.78,43.07,52.78-5.63-9.41-30.74-19.64-30.74-19.64Z"/>
    <path class="cls-2" d="m781.5,1307.7c33.57,0,62.88-17.95,79.08-44.72l-14.88-9.83c-20.33,13.37-51.89,0-51.89,0-28.35-10.69-39.52-38.3-41.97-45.38-6.06,3.86-11.02,8.49-14.56,12.25,8.1,22.16,34.33,40.62,34.33,40.62-18.45,12.04-38.52,10.43-38.52,10.43-3.25-1.84-7.31-6.73-10.43-10.94l-16.85,8.14c16.73,23.82,44.36,39.42,75.68,39.42Zm8.57-38.5c13.64,7.22,34.77,6.42,34.77,6.42-34.77,27.01-67.4,9.9-67.4,9.9,10.97,0,32.63-16.32,32.63-16.32Z"/>
    <path class="cls-2" d="m742.35,1205.84c23.84-19,53.53-14.29,60.62-12.81-.65-7.2-2.55-14.21-4.08-18.96-23.04-3.91-51.62,8.86-51.62,8.86-.9-22.02,10.8-38.43,10.8-38.43,2.86-1.63,8.03-2.58,12.79-3.15l.8-18.08c-.06,0-.12.02-.19.02-46.36,5-82.47,44.23-82.47,91.92,0,15.53,3.87,30.15,10.64,43l16.15-7.8c-1.09-24.31,26.55-44.58,26.55-44.58Zm-9.19-47.81c-5.61,9.42-2.68,36.38-2.68,36.38-13.19,8.02-23.31,26.59-23.31,26.59-5.42-43.7,25.99-62.97,25.99-62.97Z"/>
  </g>
</svg>