<?xml version="1.0" encoding="UTF-8"?>
<svg id="Camada_1" data-name="Camada 1" xmlns="http://www.w3.org/2000/svg" xmlns:xlink="http://www.w3.org/1999/xlink" viewBox="0 0 1244.16 1244.16">
  <defs>
    <style>
      .cls-1 {
        fill: url(#Gradiente_sem_nome_9-4);
      }

      .cls-2 {
        fill: url(#Gradiente_sem_nome_9-12);
      }

      .cls-3 {
        fill: url(#Gradiente_sem_nome_9);
      }

      .cls-4 {
        fill: url(#Gradiente_sem_nome_9-30);
      }

      .cls-5 {
        fill: url(#Gradiente_sem_nome_9-13);
      }

      .cls-6 {
        fill: url(#Gradiente_sem_nome_9-11);
      }

      .cls-7 {
        fill: url(#Gradiente_sem_nome_9-18);
      }

      .cls-8 {
        fill: url(#Gradiente_sem_nome_9-2);
      }

      .cls-9 {
        fill: url(#Gradiente_sem_nome_9-40);
      }

      .cls-10 {
        fill: url(#Gradiente_sem_nome_9-22);
      }

      .cls-11 {
        fill: url(#Gradiente_sem_nome_9-14);
      }

      .cls-12 {
        clip-path: url(#clippath-2);
      }

      .cls-13 {
        fill: url(#Gradiente_sem_nome_9-35);
      }

      .cls-14 {
        fill: url(#Gradiente_sem_nome_9-28);
      }

      .cls-15 {
        fill: url(#Gradiente_sem_nome_9-10);
      }

      .cls-16 {
        fill: url(#Gradiente_sem_nome_9-41);
      }

      .cls-17 {
        fill: url(#Gradiente_sem_nome_9-8);
      }

      .cls-18 {
        clip-path: url(#clippath-1);
      }

      .cls-19 {
        clip-path: url(#clippath-4);
      }

      .cls-20 {
        fill: url(#Gradiente_sem_nome_9-26);
      }

      .cls-21 {
        fill: url(#Gradiente_sem_nome_9-37);
      }

      .cls-22 {
        fill: url(#Gradiente_sem_nome_9-43);
      }

      .cls-23 {
        fill: url(#Gradiente_sem_nome_9-21);
      }

      .cls-24 {
        fill: url(#Gradiente_sem_nome_9-16);
      }

      .cls-25 {
        fill: url(#Gradiente_sem_nome_9-25);
      }

      .cls-26 {
        fill: url(#Gradiente_sem_nome_9-36);
      }

      .cls-27 {
        fill: url(#Gradiente_sem_nome_9-38);
      }

      .cls-28 {
        clip-path: url(#clippath);
      }

      .cls-29 {
        fill: url(#Gradiente_sem_nome_9-27);
      }

      .cls-30 {
        fill: none;
      }

      .cls-31 {
        fill: url(#Gradiente_sem_nome_9-15);
      }

      .cls-32 {
        fill: url(#Gradiente_sem_nome_9-17);
      }

      .cls-33 {
        fill: url(#Gradiente_sem_nome_9-7);
      }

      .cls-34 {
        fill: url(#Gradiente_sem_nome_9-9);
      }

      .cls-35 {
        clip-path: url(#clippath-3);
      }

      .cls-36 {
        fill: url(#Gradiente_sem_nome_9-5);
      }

      .cls-37 {
        fill: url(#Gradiente_sem_nome_9-33);
      }

      .cls-38 {
        fill: url(#Gradiente_sem_nome_9-39);
      }

      .cls-39 {
        fill: url(#Gradiente_sem_nome_9-19);
      }

      .cls-40 {
        fill: url(#Gradiente_sem_nome_9-29);
      }

      .cls-41 {
        fill: url(#Gradiente_sem_nome_9-24);
      }

      .cls-42 {
        fill: url(#Gradiente_sem_nome_9-3);
      }

      .cls-43 {
        fill: url(#Gradiente_sem_nome_9-42);
      }

      .cls-44 {
        clip-path: url(#clippath-5);
      }

      .cls-45 {
        fill: url(#Gradiente_sem_nome_9-6);
      }

      .cls-46 {
        fill: url(#Gradiente_sem_nome_9-32);
      }

      .cls-47 {
        fill: url(#Gradiente_sem_nome_9-34);
      }

      .cls-48 {
        fill: url(#Gradiente_sem_nome_9-20);
      }

      .cls-49 {
        fill: url(#Gradiente_sem_nome_9-31);
      }

      .cls-50 {
        fill: url(#Gradiente_sem_nome_9-23);
      }
    </style>
    <clipPath id="clippath">
      <path class="cls-30" d="m444.96,591.45c6.81,19.57,23.66,61.9,55.37,108.32,48.16,70.49,109.3,120.1,181.73,147.43,4.66,1.96,81,33.54,166.03,33.54,49.25,0,91.35-10.73,125.19-31.91l75.15,49.66c-44.29,71.58-105.9,131.52-178.52,173.6-76.71,44.45-164.38,67.95-253.52,67.95s-176.42-23.39-253.01-67.65c-72.24-41.75-133.65-101.18-177.94-172.15l81.34-39.29c18.84,27.7,51.2,71.45,76.41,85.7l1.19.67,1.36.11c.21.02,5.3.42,14.22.42,33.95,0,121.81-5.8,204.13-59.49l7.63-4.98-7.46-5.24c-.38-.26-38.2-26.98-80.67-68.8-38.32-37.73-88.14-95.59-109.91-158.59,22.74-22.99,47.2-43.33,71.29-59.3m177.48,466.22c84.63,0,164.86-29,238.48-86.2l15.14-11.76-19.16.72s-3.88.14-10.48.14c-26.65,0-118.38-2.54-180.05-35.18l-3.47-1.84-3.13,2.36c-1.19.9-119.69,89.62-178.01,89.62h-25.05l22.19,11.64c2.37,1.25,59.09,30.49,143.55,30.49m-174.13-475.73c-29.5,18.62-57.84,42.72-81.69,67.19,41.58,126.88,194.09,234.05,194.09,234.05-81.13,52.92-167.84,58.49-200.76,58.49-8.78,0-13.73-.4-13.73-.4-26.21-14.81-61.94-65.26-77.32-88.21l-92.3,44.58c90.14,148.8,253.11,248.56,439.79,248.56s350.38-100.22,440.41-249.59l-83.47-55.15c-37.73,24.82-82.43,33.1-125.24,33.1-85.63,0-163.74-33.1-163.74-33.1-169.58-63.94-228.86-236.7-236.05-259.54h0Zm174.13,469.56c-83.9,0-140.68-29.79-140.68-29.79,61.07,0,181.73-90.86,181.73-90.86,62.16,32.91,152.23,35.9,182.93,35.9,6.82,0,10.71-.15,10.71-.15-85.41,66.35-168.49,84.9-234.69,84.9h0Z"/>
    </clipPath>
    <linearGradient id="Gradiente_sem_nome_9" data-name="Gradiente sem nome 9" x1="101.94" y1="117.34" x2="1130.81" y2="1146.21" gradientUnits="userSpaceOnUse">
      <stop offset="0" stop-color="#702e3d"/>
      <stop offset="1" stop-color="#e34e35"/>
    </linearGradient>
    <clipPath id="clippath-1">
      <path class="cls-30" d="m632.57,123.84c87.97,2.78,173.78,28.32,248.52,74,74.34,45.43,136.14,109.61,178.71,185.55,2.3,4.16,4.6,8.56,6.83,12.82l.79,1.52c37.96,73.11,57.21,151.74,57.21,233.69s-18.03,155.4-53.59,226.53l-69.02-45.62c13.82-29.97,34.31-79.46,33.63-107.92l-.03-1.36-.6-1.22c-.52-1.05-13.03-26.13-39.37-58.16-24.29-29.54-65.4-70.68-123.36-98.99l-8.18-4-.68,9.08c-.03.45-3.54,45.8-17.31,102.83-12.41,51.38-35.89,122.85-77.56,174.12-31.65-6.95-61.4-16.77-88.6-29.25,30.73-37.08,126.12-168.04,96.51-332.96-.47-3.32-7.24-49.39-28.73-103.23-28.42-71.21-69.59-122.14-119.24-147.6l4.07-89.84m403.99,447.77l-1.39-25.01c-.12-2.14-3.28-53.23-34.9-116.02-29.14-57.86-89.03-136.64-208.88-183.35l-17.87-6.96,10.45,16.08c.63.97,63.35,98.36,67.64,181.52l.2,3.92,3.63,1.48c1.38.56,138.35,56.79,168.26,106.84l12.85,21.5M626.91,117.52s-.24.02-.24.02l-4.53,99.88c121.99,58.98,148.22,248.07,148.22,248.07,31.39,174.49-80.53,311.5-100.34,334.13,30.9,14.97,65.1,26.36,100.9,33.93,85.09-101.46,98.66-283.32,98.66-283.32,110.27,53.85,159.9,154.34,159.9,154.34.7,29.43-23.21,84.23-35.3,109.99l79.23,52.36c36.46-70.61,57.4-150.54,57.4-235.49s-21.11-165.68-57.91-236.54c-2.56-4.88-5.1-9.77-7.71-14.48-86.42-154.2-249.85-259.06-438.28-262.89h0Zm402.09,429.42c-31.33-52.43-171.23-109.39-171.23-109.39-4.43-85.84-68.63-184.57-68.63-184.57,228.48,89.06,239.86,293.96,239.86,293.96h0Z"/>
    </clipPath>
    <clipPath id="clippath-2">
      <path class="cls-30" d="m587.71,124.6l-3.84,84.88c-35.23,2.61-79.47,8.36-101.6,21.01l-1.18.67-.79,1.1c-.68.96-16.87,23.87-32.62,62.27-14.52,35.4-31.27,91.13-28.65,155.58l.37,9.08,8.31-3.69c1.2-.54,121.67-53.54,233.07-53.54,22.78,0,43.86,2.23,62.71,6.62,4.16,13.51,13.76,62.37,14.58,91.75-14.75-3.18-49.33-9.39-94.6-9.39-67.08,0-164.78,14.15-249.42,81.58-2.7,1.99-40.01,29.83-77.18,74.31-49.16,58.83-74.41,119.25-73.22,175.05l-80.57,38.91c-36.47-71.85-54.96-148.98-54.96-229.38,0-133.46,51.55-259.64,145.1-355.24.93-.93,1.83-1.84,2.73-2.76,1.69-1.71,3.28-3.33,5.12-5.1,6.66-6.52,14.05-13.24,23.98-21.8,5.09-4.41,10.54-8.86,15.62-12.97,82.41-65.48,181.53-103.08,287.06-108.95M198.06,681.63l9.19-16.83c.56-1.02,56.47-102.47,127.6-145.75l3.35-2.04-.42-3.9c-.16-1.48-15.73-148.71,14.12-198.8l12.83-21.53-21.36,13.11c-1.83,1.12-45.29,28.17-85.52,85.82-37.08,53.12-77.95,143.25-62.14,270.9l2.36,19.03M594.19,118.11c-112.19,4.8-215.01,45.17-297.37,110.62-5.43,4.39-10.8,8.79-15.82,13.14-8.28,7.14-16.44,14.41-24.26,22.06-2.84,2.73-5.24,5.25-7.9,7.9-90.78,92.76-146.9,219.57-146.9,359.6,0,85.76,21.29,166.45,58.4,237.55l89.6-43.28c-6.05-135.38,147.86-248.27,147.86-248.27,81.86-65.26,176.15-80.3,245.66-80.3,59.44,0,100.76,10.99,100.76,10.99,1.09-30.04-11.89-95.46-16.06-104.76-21.43-5.35-44.27-7.57-67.39-7.57-114.07,0-235.58,54.07-235.58,54.07-4.99-122.61,60.13-214.01,60.13-214.01,23.18-13.25,73.67-18.54,104.46-20.6l4.4-97.15h0ZM201.83,661.84c-30.15-243.36,144.76-350.7,144.76-350.7-31.27,52.47-14.95,202.63-14.95,202.63-73.43,44.68-129.81,148.07-129.81,148.07h0Z"/>
    </clipPath>
    <clipPath id="clippath-3">
      <path class="cls-30" d="m2679.68,815.63c-104.54,68.77-266.84,0-266.84,0-156.58-59.04-211.33-218.56-217.96-239.65-27.24,17.19-53.41,39.45-75.43,62.04,38.39,117.16,179.22,216.12,179.22,216.12-94.9,61.9-198.05,53.64-198.05,53.64-24.2-13.68-57.2-60.26-71.4-81.45l-85.23,41.17c83.24,137.4,233.72,229.52,406.1,229.52s323.54-92.54,406.67-230.46l-77.07-50.93Zm-453.91,166.43c56.39,0,167.81-83.9,167.81-83.9,70.15,37.14,178.81,33.01,178.81,33.01-178.81,138.92-346.61,50.89-346.61,50.89Z"/>
    </clipPath>
    <linearGradient id="Gradiente_sem_nome_9-2" data-name="Gradiente sem nome 9" x1="1636.1" y1="181.44" x2="1796.84" y2="342.18" gradientTransform="translate(3206.78 -629.13) rotate(140.46)" xlink:href="#Gradiente_sem_nome_9"/>
    <linearGradient id="Gradiente_sem_nome_9-3" data-name="Gradiente sem nome 9" x1="1647.61" y1="206.77" x2="1808.35" y2="367.51" gradientTransform="translate(3243.29 -591.6) rotate(140.46)" xlink:href="#Gradiente_sem_nome_9"/>
    <linearGradient id="Gradiente_sem_nome_9-4" data-name="Gradiente sem nome 9" x1="1666.78" y1="223.02" x2="1827.52" y2="383.76" gradientTransform="translate(3287.6 -575.02) rotate(140.46)" xlink:href="#Gradiente_sem_nome_9"/>
    <linearGradient id="Gradiente_sem_nome_9-5" data-name="Gradiente sem nome 9" x1="1686.24" y1="238.69" x2="1846.98" y2="399.43" gradientTransform="translate(3332.04 -559.66) rotate(140.46)" xlink:href="#Gradiente_sem_nome_9"/>
    <linearGradient id="Gradiente_sem_nome_9-6" data-name="Gradiente sem nome 9" x1="1705.41" y1="254.95" x2="1866.15" y2="415.69" gradientTransform="translate(3376.34 -543.07) rotate(140.46)" xlink:href="#Gradiente_sem_nome_9"/>
    <linearGradient id="Gradiente_sem_nome_9-7" data-name="Gradiente sem nome 9" x1="1724.91" y1="270.59" x2="1885.65" y2="431.33" gradientTransform="translate(3420.83 -527.78) rotate(140.46)" xlink:href="#Gradiente_sem_nome_9"/>
    <linearGradient id="Gradiente_sem_nome_9-8" data-name="Gradiente sem nome 9" x1="1744.08" y1="286.84" x2="1904.82" y2="447.58" gradientTransform="translate(3465.13 -511.2) rotate(140.46)" xlink:href="#Gradiente_sem_nome_9"/>
    <linearGradient id="Gradiente_sem_nome_9-9" data-name="Gradiente sem nome 9" x1="1763.54" y1="302.51" x2="1924.28" y2="463.25" gradientTransform="translate(3509.58 -495.84) rotate(140.46)" xlink:href="#Gradiente_sem_nome_9"/>
    <linearGradient id="Gradiente_sem_nome_9-10" data-name="Gradiente sem nome 9" x1="1782.71" y1="318.77" x2="1943.45" y2="479.51" gradientTransform="translate(3553.88 -479.25) rotate(140.46)" xlink:href="#Gradiente_sem_nome_9"/>
    <linearGradient id="Gradiente_sem_nome_9-11" data-name="Gradiente sem nome 9" x1="1802.21" y1="334.41" x2="1962.95" y2="495.15" gradientTransform="translate(3598.38 -463.96) rotate(140.46)" xlink:href="#Gradiente_sem_nome_9"/>
    <linearGradient id="Gradiente_sem_nome_9-12" data-name="Gradiente sem nome 9" x1="1821.38" y1="350.67" x2="1982.12" y2="511.41" gradientTransform="translate(3642.68 -447.37) rotate(140.46)" xlink:href="#Gradiente_sem_nome_9"/>
    <linearGradient id="Gradiente_sem_nome_9-13" data-name="Gradiente sem nome 9" x1="1840.84" y1="366.34" x2="2001.58" y2="527.08" gradientTransform="translate(3687.13 -432.01) rotate(140.46)" xlink:href="#Gradiente_sem_nome_9"/>
    <linearGradient id="Gradiente_sem_nome_9-14" data-name="Gradiente sem nome 9" x1="1860.01" y1="382.59" x2="2020.75" y2="543.33" gradientTransform="translate(3731.43 -415.43) rotate(140.46)" xlink:href="#Gradiente_sem_nome_9"/>
    <linearGradient id="Gradiente_sem_nome_9-15" data-name="Gradiente sem nome 9" x1="1879.51" y1="398.23" x2="2040.25" y2="558.97" gradientTransform="translate(3775.92 -400.14) rotate(140.46)" xlink:href="#Gradiente_sem_nome_9"/>
    <clipPath id="clippath-4">
      <path class="cls-30" d="m2771.63,403.26c-2.36-4.51-4.71-9.02-7.11-13.37-79.8-142.38-230.71-239.21-404.7-242.75-.04,0-.22.02-.22.02l-4.18,92.22c112.65,54.46,136.87,229.06,136.87,229.06,28.99,161.12-74.36,287.64-92.65,308.53,28.53,13.82,60.12,24.34,93.17,31.33,78.57-93.69,91.1-261.61,91.1-261.61,101.82,49.72,147.65,142.51,147.65,142.51.65,27.17-21.43,77.78-32.6,101.57l73.16,48.35c33.67-65.2,53-139.01,53-217.45s-19.5-152.98-53.47-218.41Zm-198.64,39.39c-4.09-79.27-63.37-170.43-63.37-170.43,210.98,82.24,221.48,271.44,221.48,271.44-28.93-48.41-158.11-101.01-158.11-101.01Z"/>
    </clipPath>
    <linearGradient id="Gradiente_sem_nome_9-16" data-name="Gradiente sem nome 9" x1="1636.1" y1="181.44" x2="1796.84" y2="342.18" gradientTransform="translate(3206.78 -629.13) rotate(140.46)" xlink:href="#Gradiente_sem_nome_9"/>
    <linearGradient id="Gradiente_sem_nome_9-17" data-name="Gradiente sem nome 9" x1="1647.61" y1="206.77" x2="1808.35" y2="367.51" gradientTransform="translate(3243.29 -591.6) rotate(140.46)" xlink:href="#Gradiente_sem_nome_9"/>
    <linearGradient id="Gradiente_sem_nome_9-18" data-name="Gradiente sem nome 9" x1="1666.78" y1="223.02" x2="1827.52" y2="383.76" gradientTransform="translate(3287.6 -575.02) rotate(140.46)" xlink:href="#Gradiente_sem_nome_9"/>
    <linearGradient id="Gradiente_sem_nome_9-19" data-name="Gradiente sem nome 9" x1="1686.24" y1="238.69" x2="1846.98" y2="399.43" gradientTransform="translate(3332.04 -559.66) rotate(140.46)" xlink:href="#Gradiente_sem_nome_9"/>
    <linearGradient id="Gradiente_sem_nome_9-20" data-name="Gradiente sem nome 9" x1="1705.41" y1="254.95" x2="1866.15" y2="415.69" gradientTransform="translate(3376.34 -543.07) rotate(140.46)" xlink:href="#Gradiente_sem_nome_9"/>
    <linearGradient id="Gradiente_sem_nome_9-21" data-name="Gradiente sem nome 9" x1="1724.91" y1="270.59" x2="1885.65" y2="431.33" gradientTransform="translate(3420.83 -527.78) rotate(140.46)" xlink:href="#Gradiente_sem_nome_9"/>
    <linearGradient id="Gradiente_sem_nome_9-22" data-name="Gradiente sem nome 9" x1="1744.08" y1="286.84" x2="1904.82" y2="447.58" gradientTransform="translate(3465.13 -511.2) rotate(140.46)" xlink:href="#Gradiente_sem_nome_9"/>
    <linearGradient id="Gradiente_sem_nome_9-23" data-name="Gradiente sem nome 9" x1="1763.54" y1="302.51" x2="1924.28" y2="463.25" gradientTransform="translate(3509.58 -495.84) rotate(140.46)" xlink:href="#Gradiente_sem_nome_9"/>
    <linearGradient id="Gradiente_sem_nome_9-24" data-name="Gradiente sem nome 9" x1="1782.71" y1="318.77" x2="1943.45" y2="479.51" gradientTransform="translate(3553.88 -479.25) rotate(140.46)" xlink:href="#Gradiente_sem_nome_9"/>
    <linearGradient id="Gradiente_sem_nome_9-25" data-name="Gradiente sem nome 9" x1="1802.21" y1="334.41" x2="1962.95" y2="495.15" gradientTransform="translate(3598.38 -463.96) rotate(140.46)" xlink:href="#Gradiente_sem_nome_9"/>
    <linearGradient id="Gradiente_sem_nome_9-26" data-name="Gradiente sem nome 9" x1="1821.38" y1="350.67" x2="1982.12" y2="511.41" gradientTransform="translate(3642.68 -447.37) rotate(140.46)" xlink:href="#Gradiente_sem_nome_9"/>
    <linearGradient id="Gradiente_sem_nome_9-27" data-name="Gradiente sem nome 9" x1="1840.84" y1="366.34" x2="2001.58" y2="527.08" gradientTransform="translate(3687.13 -432.01) rotate(140.46)" xlink:href="#Gradiente_sem_nome_9"/>
    <linearGradient id="Gradiente_sem_nome_9-28" data-name="Gradiente sem nome 9" x1="1860.01" y1="382.59" x2="2020.75" y2="543.33" gradientTransform="translate(3731.43 -415.43) rotate(140.46)" xlink:href="#Gradiente_sem_nome_9"/>
    <linearGradient id="Gradiente_sem_nome_9-29" data-name="Gradiente sem nome 9" x1="1879.51" y1="398.23" x2="2040.25" y2="558.97" gradientTransform="translate(3775.92 -400.14) rotate(140.46)" xlink:href="#Gradiente_sem_nome_9"/>
    <clipPath id="clippath-5">
      <path class="cls-30" d="m2453.3,411.08c-117.44-29.29-279.75,42.94-279.75,42.94-4.61-113.21,55.52-197.62,55.52-197.62,21.4-12.23,68.02-17.12,96.45-19.02l4.06-89.71c-103.6,4.43-198.54,41.71-274.58,102.14-5.02,4.06-9.98,8.11-14.61,12.13-7.64,6.59-15.18,13.31-22.4,20.37-2.63,2.52-4.84,4.85-7.29,7.3-83.82,85.66-135.65,202.74-135.65,332.05,0,79.19,19.66,153.69,53.93,219.35l82.74-39.96c-5.59-125,136.53-229.24,136.53-229.24,140.23-111.79,319.88-64,319.88-64,1.01-27.74-10.98-88.15-14.83-96.73Zm-366.14,101.95c-67.8,41.26-119.86,136.72-119.86,136.72-27.84-224.71,133.67-323.83,133.67-323.83-28.87,48.45-13.8,187.1-13.8,187.1Z"/>
    </clipPath>
    <linearGradient id="Gradiente_sem_nome_9-30" data-name="Gradiente sem nome 9" x1="1636.1" y1="181.44" x2="1796.84" y2="342.18" gradientTransform="translate(3206.78 -629.13) rotate(140.46)" xlink:href="#Gradiente_sem_nome_9"/>
    <linearGradient id="Gradiente_sem_nome_9-31" data-name="Gradiente sem nome 9" x1="1647.61" y1="206.77" x2="1808.35" y2="367.51" gradientTransform="translate(3243.29 -591.6) rotate(140.46)" xlink:href="#Gradiente_sem_nome_9"/>
    <linearGradient id="Gradiente_sem_nome_9-32" data-name="Gradiente sem nome 9" x1="1666.78" y1="223.02" x2="1827.52" y2="383.76" gradientTransform="translate(3287.6 -575.02) rotate(140.46)" xlink:href="#Gradiente_sem_nome_9"/>
    <linearGradient id="Gradiente_sem_nome_9-33" data-name="Gradiente sem nome 9" x1="1686.24" y1="238.69" x2="1846.98" y2="399.43" gradientTransform="translate(3332.04 -559.66) rotate(140.46)" xlink:href="#Gradiente_sem_nome_9"/>
    <linearGradient id="Gradiente_sem_nome_9-34" data-name="Gradiente sem nome 9" x1="1705.41" y1="254.95" x2="1866.15" y2="415.69" gradientTransform="translate(3376.34 -543.07) rotate(140.46)" xlink:href="#Gradiente_sem_nome_9"/>
    <linearGradient id="Gradiente_sem_nome_9-35" data-name="Gradiente sem nome 9" x1="1724.91" y1="270.59" x2="1885.65" y2="431.33" gradientTransform="translate(3420.83 -527.78) rotate(140.46)" xlink:href="#Gradiente_sem_nome_9"/>
    <linearGradient id="Gradiente_sem_nome_9-36" data-name="Gradiente sem nome 9" x1="1744.08" y1="286.84" x2="1904.82" y2="447.58" gradientTransform="translate(3465.13 -511.2) rotate(140.46)" xlink:href="#Gradiente_sem_nome_9"/>
    <linearGradient id="Gradiente_sem_nome_9-37" data-name="Gradiente sem nome 9" x1="1763.54" y1="302.51" x2="1924.28" y2="463.25" gradientTransform="translate(3509.58 -495.84) rotate(140.46)" xlink:href="#Gradiente_sem_nome_9"/>
    <linearGradient id="Gradiente_sem_nome_9-38" data-name="Gradiente sem nome 9" x1="1782.71" y1="318.77" x2="1943.45" y2="479.51" gradientTransform="translate(3553.88 -479.25) rotate(140.46)" xlink:href="#Gradiente_sem_nome_9"/>
    <linearGradient id="Gradiente_sem_nome_9-39" data-name="Gradiente sem nome 9" x1="1802.21" y1="334.41" x2="1962.95" y2="495.15" gradientTransform="translate(3598.38 -463.96) rotate(140.46)" xlink:href="#Gradiente_sem_nome_9"/>
    <linearGradient id="Gradiente_sem_nome_9-40" data-name="Gradiente sem nome 9" x1="1821.38" y1="350.67" x2="1982.12" y2="511.41" gradientTransform="translate(3642.68 -447.37) rotate(140.46)" xlink:href="#Gradiente_sem_nome_9"/>
    <linearGradient id="Gradiente_sem_nome_9-41" data-name="Gradiente sem nome 9" x1="1840.84" y1="366.34" x2="2001.58" y2="527.08" gradientTransform="translate(3687.13 -432.01) rotate(140.46)" xlink:href="#Gradiente_sem_nome_9"/>
    <linearGradient id="Gradiente_sem_nome_9-42" data-name="Gradiente sem nome 9" x1="1860.01" y1="382.59" x2="2020.75" y2="543.33" gradientTransform="translate(3731.43 -415.43) rotate(140.46)" xlink:href="#Gradiente_sem_nome_9"/>
    <linearGradient id="Gradiente_sem_nome_9-43" data-name="Gradiente sem nome 9" x1="1879.51" y1="398.23" x2="2040.25" y2="558.97" gradientTransform="translate(3775.92 -400.14) rotate(140.46)" xlink:href="#Gradiente_sem_nome_9"/>
  </defs>
  <g>
    <g class="cls-28">
      <rect class="cls-3" x="101.94" y="117.34" width="1028.87" height="1028.87"/>
    </g>
    <g class="cls-18">
      <rect class="cls-3" x="101.94" y="117.34" width="1028.87" height="1028.87"/>
    </g>
    <g class="cls-12">
      <rect class="cls-3" x="101.94" y="117.34" width="1028.87" height="1028.87"/>
    </g>
  </g>
  <g>
    <g class="cls-35">
      <g>
        <rect class="cls-8" x="1710.07" y="-866.66" width="12.8" height="2256.93" transform="translate(2873.4 1556.53) rotate(-140.46)"/>
        <rect class="cls-42" x="1721.58" y="-841.33" width="12.8" height="2256.93" transform="translate(2877.67 1608.72) rotate(-140.46)"/>
        <rect class="cls-1" x="1740.75" y="-825.07" width="12.8" height="2256.93" transform="translate(2901.27 1649.72) rotate(-140.46)"/>
        <rect class="cls-36" x="1760.21" y="-809.41" width="12.8" height="2256.93" transform="translate(2925.76 1689.86) rotate(-140.46)"/>
        <rect class="cls-45" x="1779.38" y="-793.15" width="12.8" height="2256.93" transform="translate(2949.37 1730.85) rotate(-140.46)"/>
        <rect class="cls-33" x="1798.88" y="-777.51" width="12.8" height="2256.93" transform="translate(2973.94 1770.96) rotate(-140.46)"/>
        <rect class="cls-17" x="1818.05" y="-761.25" width="12.8" height="2256.93" transform="translate(2997.54 1811.96) rotate(-140.46)"/>
        <rect class="cls-34" x="1837.51" y="-745.59" width="12.8" height="2256.93" transform="translate(3022.03 1852.1) rotate(-140.46)"/>
        <rect class="cls-15" x="1856.68" y="-729.33" width="12.8" height="2256.93" transform="translate(3045.64 1893.1) rotate(-140.46)"/>
        <rect class="cls-6" x="1876.18" y="-713.69" width="12.8" height="2256.93" transform="translate(3070.22 1933.22) rotate(-140.46)"/>
        <rect class="cls-2" x="1895.35" y="-697.43" width="12.8" height="2256.93" transform="translate(3093.82 1974.22) rotate(-140.46)"/>
        <rect class="cls-5" x="1914.81" y="-681.76" width="12.8" height="2256.93" transform="translate(3118.31 2014.36) rotate(-140.46)"/>
        <rect class="cls-11" x="1933.98" y="-665.5" width="12.8" height="2256.93" transform="translate(3141.92 2055.36) rotate(-140.46)"/>
        <rect class="cls-31" x="1953.48" y="-649.87" width="12.8" height="2256.93" transform="translate(3166.49 2095.47) rotate(-140.46)"/>
      </g>
    </g>
    <g class="cls-19">
      <g>
        <rect class="cls-24" x="1710.07" y="-866.66" width="12.8" height="2256.93" transform="translate(2873.4 1556.53) rotate(-140.46)"/>
        <rect class="cls-32" x="1721.58" y="-841.33" width="12.8" height="2256.93" transform="translate(2877.67 1608.72) rotate(-140.46)"/>
        <rect class="cls-7" x="1740.75" y="-825.07" width="12.8" height="2256.93" transform="translate(2901.27 1649.72) rotate(-140.46)"/>
        <rect class="cls-39" x="1760.21" y="-809.41" width="12.8" height="2256.93" transform="translate(2925.76 1689.86) rotate(-140.46)"/>
        <rect class="cls-48" x="1779.38" y="-793.15" width="12.8" height="2256.93" transform="translate(2949.37 1730.85) rotate(-140.46)"/>
        <rect class="cls-23" x="1798.88" y="-777.51" width="12.8" height="2256.93" transform="translate(2973.94 1770.96) rotate(-140.46)"/>
        <rect class="cls-10" x="1818.05" y="-761.25" width="12.8" height="2256.93" transform="translate(2997.54 1811.96) rotate(-140.46)"/>
        <rect class="cls-50" x="1837.51" y="-745.59" width="12.8" height="2256.93" transform="translate(3022.03 1852.1) rotate(-140.46)"/>
        <rect class="cls-41" x="1856.68" y="-729.33" width="12.8" height="2256.93" transform="translate(3045.64 1893.1) rotate(-140.46)"/>
        <rect class="cls-25" x="1876.18" y="-713.69" width="12.8" height="2256.93" transform="translate(3070.22 1933.22) rotate(-140.46)"/>
        <rect class="cls-20" x="1895.35" y="-697.43" width="12.8" height="2256.93" transform="translate(3093.82 1974.22) rotate(-140.46)"/>
        <rect class="cls-29" x="1914.81" y="-681.76" width="12.8" height="2256.93" transform="translate(3118.31 2014.36) rotate(-140.46)"/>
        <rect class="cls-14" x="1933.98" y="-665.5" width="12.8" height="2256.93" transform="translate(3141.92 2055.36) rotate(-140.46)"/>
        <rect class="cls-40" x="1953.48" y="-649.87" width="12.8" height="2256.93" transform="translate(3166.49 2095.47) rotate(-140.46)"/>
      </g>
    </g>
    <g class="cls-44">
      <g>
        <rect class="cls-4" x="1710.07" y="-866.66" width="12.8" height="2256.93" transform="translate(2873.4 1556.53) rotate(-140.46)"/>
        <rect class="cls-49" x="1721.58" y="-841.33" width="12.8" height="2256.93" transform="translate(2877.67 1608.72) rotate(-140.46)"/>
        <rect class="cls-46" x="1740.75" y="-825.07" width="12.8" height="2256.93" transform="translate(2901.27 1649.72) rotate(-140.46)"/>
        <rect class="cls-37" x="1760.21" y="-809.41" width="12.8" height="2256.93" transform="translate(2925.76 1689.86) rotate(-140.46)"/>
        <rect class="cls-47" x="1779.38" y="-793.15" width="12.8" height="2256.93" transform="translate(2949.37 1730.85) rotate(-140.46)"/>
        <rect class="cls-13" x="1798.88" y="-777.51" width="12.8" height="2256.93" transform="translate(2973.94 1770.96) rotate(-140.46)"/>
        <rect class="cls-26" x="1818.05" y="-761.25" width="12.8" height="2256.93" transform="translate(2997.54 1811.96) rotate(-140.46)"/>
        <rect class="cls-21" x="1837.51" y="-745.59" width="12.8" height="2256.93" transform="translate(3022.03 1852.1) rotate(-140.46)"/>
        <rect class="cls-27" x="1856.68" y="-729.33" width="12.8" height="2256.93" transform="translate(3045.64 1893.1) rotate(-140.46)"/>
        <rect class="cls-38" x="1876.18" y="-713.69" width="12.8" height="2256.93" transform="translate(3070.22 1933.22) rotate(-140.46)"/>
        <rect class="cls-9" x="1895.35" y="-697.43" width="12.8" height="2256.93" transform="translate(3093.82 1974.22) rotate(-140.46)"/>
        <rect class="cls-16" x="1914.81" y="-681.76" width="12.8" height="2256.93" transform="translate(3118.31 2014.36) rotate(-140.46)"/>
        <rect class="cls-43" x="1933.98" y="-665.5" width="12.8" height="2256.93" transform="translate(3141.92 2055.36) rotate(-140.46)"/>
        <rect class="cls-22" x="1953.48" y="-649.87" width="12.8" height="2256.93" transform="translate(3166.49 2095.47) rotate(-140.46)"/>
      </g>
    </g>
  </g>
</svg>