<?xml version="1.0" encoding="UTF-8"?>
<svg id="Camada_1" data-name="Camada 1" xmlns="http://www.w3.org/2000/svg" viewBox="0 0 1112 1447.2">
  <defs>
    <style>
      .cls-1 {
        fill: #462324;
      }

      .cls-2 {
        fill: #e34e35;
      }
    </style>
  </defs>
  <g>
    <g>
      <path class="cls-1" d="m149.24,218.69h80.76l80.76,142.85v-142.85h92.29v326.51h-80.76l-80.76-142.85v142.85h-92.29V218.69Z"/>
      <path class="cls-1" d="m439.52,279.91c0-17.01,5.95-31.46,17.86-43.36,11.9-11.91,26.36-17.86,43.36-17.86h81.63c17.01,0,31.46,5.95,43.36,17.86,11.91,11.9,17.86,26.36,17.86,43.36v265.29h-81.63v-102.03h-40.81v102.03h-81.63v-265.29Zm122.44,0h-40.81v102.03h40.81v-102.03Z"/>
      <path class="cls-1" d="m149.24,601.73h101.52v122.44l50.76-81.63v-40.81h101.52v40.81l-50.76,81.63c13.75,0,25.64,4.04,35.69,12.12,10.05,8.08,15.07,17.64,15.07,28.7v163.26h-101.52v-142.85h-50.76v142.85h-101.52v-326.51Z"/>
      <path class="cls-1" d="m439.52,662.95c0-17.01,5.95-31.46,17.86-43.36,11.9-11.91,26.36-17.86,43.36-17.86h81.63c17.01,0,31.46,5.95,43.36,17.86,11.91,11.9,17.86,26.36,17.86,43.36v265.29h-81.63v-102.03h-40.81v102.03h-81.63v-265.29Zm122.44,0h-40.81v102.03h40.81v-102.03Z"/>
      <path class="cls-1" d="m149.24,984.76h71.42l55.6,142.85,55.36-142.85h71.42v326.51h-81.63v-142.85l-45.15,122.44-45.4-122.44v142.85h-81.63v-326.51Z"/>
      <path class="cls-1" d="m439.52,1045.98c0-17.01,5.95-31.46,17.86-43.36,11.9-11.91,26.36-17.86,43.36-17.86h81.63c17.01,0,31.46,5.95,43.36,17.86,11.91,11.9,17.86,26.36,17.86,43.36v265.29h-81.63v-102.03h-40.81v102.03h-81.63v-265.29Zm122.44,0h-40.81v102.03h40.81v-102.03Z"/>
    </g>
    <path class="cls-1" d="m531.14,135.93h92.45l-61.64,61.64h-61.64l30.82-61.64Z"/>
  </g>
  <g>
    <path class="cls-2" d="m862.74,1106.94l-.94,20.58c24.21,11.71,29.42,49.23,29.42,49.23,5.78,32.09-12.88,57.79-18.78,64.97,5.18,2.45,11.92,4.97,20.04,6.65,15.86-20.37,18.43-54.8,18.43-54.8,21.88,10.69,31.73,30.63,31.73,30.63.1,4.01-2.12,10.4-4.29,15.67l15.7,10.37c5.56-12.61,8.7-26.52,8.7-41.18,0-55.71-44.59-100.93-100.02-102.11Zm45.83,64.26c-.88-17.04-13.62-36.63-13.62-36.63,45.34,17.68,47.6,58.34,47.6,58.34-6.22-10.4-33.98-21.71-33.98-21.71Z"/>
    <path class="cls-2" d="m860.54,1311.27c37.11,0,69.5-19.84,87.41-49.42l-16.45-10.87c-22.47,14.78-57.35,0-57.35,0-31.33-11.81-43.69-42.34-46.39-50.16-6.69,4.26-12.18,9.38-16.09,13.54,8.96,24.49,37.94,44.89,37.94,44.89-20.4,13.3-42.57,11.53-42.57,11.53-3.59-2.03-8.08-7.43-11.53-12.09l-18.62,9c18.49,26.32,49.03,43.57,83.65,43.57Zm9.47-42.55c15.08,7.98,38.43,7.1,38.43,7.1-38.43,29.86-74.5,10.94-74.5,10.94,12.12,0,36.07-18.03,36.07-18.03Z"/>
    <path class="cls-2" d="m817.27,1198.69c26.35-21,59.17-15.8,67.01-14.15-.71-7.96-2.82-15.71-4.51-20.96-25.47-4.32-57.05,9.8-57.05,9.8-.99-24.33,11.93-42.47,11.93-42.47,3.16-1.8,8.88-2.85,14.14-3.48l.89-19.99c-.07,0-.13.02-.2.02-51.24,5.52-91.15,48.89-91.15,101.6,0,17.17,4.28,33.32,11.76,47.53l17.85-8.62c-1.2-26.87,29.34-49.27,29.34-49.27Zm-10.16-52.85c-6.21,10.41-2.97,40.22-2.97,40.22-14.57,8.87-25.76,29.39-25.76,29.39-5.99-48.3,28.73-69.6,28.73-69.6Z"/>
  </g>
</svg>