<?xml version="1.0" encoding="UTF-8"?>
<svg id="Camada_1" data-name="Camada 1" xmlns="http://www.w3.org/2000/svg" viewBox="0 0 858.23 1718.57">
  <defs>
    <style>
      .cls-1 {
        fill: #462324;
      }
    </style>
  </defs>
  <g>
    <path class="cls-1" d="m422,220.05v392.11h-79.87l-100.24-177.32-29.4-52v229.31h-88.29V220.05h79.87l100.24,177.32,29.4,52v-229.32h88.29m15.72-15.72h-119.72v185.3l-104.75-185.3h-104.75v423.54h119.72v-185.3l104.75,185.3h104.75V204.34h0Z"/>
    <path class="cls-1" d="m670.33,220.05c17.89,0,32.65,6.07,45.14,18.57,12.49,12.47,18.56,27.23,18.56,45.13v328.41h-74.45v-132.36h-84.38v132.36h-74.45v-328.41c0-17.89,6.07-32.65,18.57-45.14,12.47-12.49,27.23-18.56,45.13-18.56h105.89m-95.13,211.77h84.38v-163.79h-84.38v163.79m95.13-227.48h-105.89c-22.06,0-40.81,7.72-56.24,23.17-15.45,15.43-23.17,34.19-23.17,56.25v344.12h105.88v-132.36h52.94v132.36h105.88v-344.12c0-22.06-7.72-40.81-23.17-56.25-15.43-15.45-34.19-23.17-56.24-23.17h0Zm-79.42,211.77v-132.36h52.94v132.36h-52.94Z"/>
    <path class="cls-1" d="m422,716.91v32.74l-63.47,102.07-14.93,24.01h28.28c14.27,0,26.2,4.01,36.45,12.25,9.33,7.5,13.68,15.44,13.68,24.98v196.05h-100.26v-185.3h-97.28v185.3h-100.26v-392.11h100.26v198.14l29.06-46.73,65.85-105.88,2.37-3.81v-41.71h100.26m15.72-15.72h-131.69v52.94l-65.85,105.88v-158.83H108.49v423.54h131.69v-185.3h65.85v185.3h131.69v-211.77c0-14.34-6.51-26.74-19.55-37.22-13.04-10.48-28.46-15.72-46.3-15.72l65.84-105.88v-52.94h0Z"/>
    <path class="cls-1" d="m670.33,716.91c17.89,0,32.65,6.07,45.14,18.57,12.49,12.47,18.56,27.23,18.56,45.13v328.41h-74.45v-132.36h-84.38v132.36h-74.45v-328.41c0-17.89,6.07-32.65,18.57-45.14,12.47-12.49,27.23-18.56,45.13-18.56h105.89m-95.13,211.77h84.38v-163.79h-84.38v163.79m95.13-227.48h-105.89c-22.06,0-40.81,7.72-56.24,23.17-15.45,15.43-23.17,34.19-23.17,56.25v344.12h105.88v-132.36h52.94v132.36h105.88v-344.12c0-22.06-7.72-40.81-23.17-56.25-15.43-15.45-34.19-23.17-56.24-23.17h0Zm-79.42,211.77v-132.36h52.94v132.36h-52.94Z"/>
    <path class="cls-1" d="m422,1213.76v392.11h-74.45v-257.62l-30.46,82.6-43.87,118.95-44.11-118.98-30.45-82.14v257.18h-74.45v-392.11h66.19l68.22,175.28,14.68,37.71,14.62-37.73,67.92-175.26h66.17m15.72-15.72h-92.65l-71.81,185.3-72.12-185.3h-92.65v423.54h105.89v-185.3l58.88,158.83,58.57-158.83v185.3h105.88v-423.54h0Z"/>
    <path class="cls-1" d="m670.33,1213.76c17.89,0,32.65,6.07,45.14,18.57,12.49,12.47,18.56,27.23,18.56,45.13v328.41h-74.45v-132.36h-84.38v132.36h-74.45v-328.41c0-17.89,6.07-32.65,18.57-45.14,12.47-12.49,27.23-18.56,45.13-18.56h105.89m-95.13,211.77h84.38v-163.79h-84.38v163.79m95.13-227.48h-105.89c-22.06,0-40.81,7.72-56.24,23.17-15.45,15.43-23.17,34.19-23.17,56.25v344.12h105.88v-132.36h52.94v132.36h105.88v-344.12c0-22.06-7.72-40.81-23.17-56.25-15.43-15.45-34.19-23.17-56.24-23.17h0Zm-79.42,211.77v-132.36h52.94v132.36h-52.94Z"/>
  </g>
  <path class="cls-1" d="m685.87,112.7l-48.52,48.52h-48.01l24.26-48.52h72.27m37.94-15.72h-119.92l-39.98,79.95h79.95l79.95-79.95h0Z"/>
</svg>