<?xml version="1.0" encoding="UTF-8"?>
<svg id="Camada_1" data-name="Camada 1" xmlns="http://www.w3.org/2000/svg" viewBox="0 0 2380.45 473.55">
  <defs>
    <style>
      .cls-1 {
        fill: #faedf2;
      }
    </style>
  </defs>
  <g>
    <g>
      <path class="cls-1" d="m111.12,129.6h56.62l56.61,113.22v-113.22h64.7v258.8h-56.61l-56.62-113.22v113.22h-64.7V129.6Z"/>
      <path class="cls-1" d="m321.4,178.13c0-13.48,4.72-24.93,14.15-34.37,9.44-9.43,20.89-14.15,34.37-14.15h64.7c13.48,0,24.93,4.72,34.37,14.15,9.43,9.44,14.15,20.9,14.15,34.37v210.27h-64.7v-80.87h-32.35v80.87h-64.7v-210.27Zm72.79-113.22h72.78l-48.52,48.52h-48.52l24.27-48.52Zm24.26,113.22h-32.35v80.87h32.35v-80.87Z"/>
      <path class="cls-1" d="m515.51,129.6h64.7v97.05l32.35-64.7v-32.35h64.7v32.35l-32.35,64.7c8.76,0,16.34,3.2,22.74,9.61,6.4,6.4,9.61,13.99,9.61,22.74v129.4h-64.7v-113.22h-32.35v113.22h-64.7V129.6Z"/>
      <path class="cls-1" d="m709.61,178.13c0-13.48,4.72-24.93,14.15-34.37,9.44-9.43,20.89-14.15,34.37-14.15h64.7c13.48,0,24.93,4.72,34.37,14.15,9.43,9.44,14.15,20.9,14.15,34.37v210.27h-64.7v-80.87h-32.35v80.87h-64.7v-210.27Zm97.05,0h-32.35v80.87h32.35v-80.87Z"/>
      <path class="cls-1" d="m903.73,129.6h56.61l56.62,113.22,56.62-113.22h56.61v258.8h-64.7v-113.22l-48.52,97.05-48.52-97.05v113.22h-64.7V129.6Z"/>
      <path class="cls-1" d="m1162.54,178.13c0-13.48,4.72-24.93,14.15-34.37,9.44-9.43,20.89-14.15,34.37-14.15h64.7c13.48,0,24.93,4.72,34.37,14.15,9.43,9.44,14.15,20.9,14.15,34.37v210.27h-64.7v-80.87h-32.35v80.87h-64.7v-210.27Zm97.05,0h-32.35v80.87h32.35v-80.87Z"/>
    </g>
    <g>
      <path class="cls-1" d="m1389.35,129.6h43.34c7.22,0,13.18,2.35,17.87,7.05,4.33,4.33,6.5,10.11,6.5,17.33,0,5.78-1.99,10.66-5.96,14.62-2.17,2.17-4.87,3.79-8.12,4.88,4.33,1.45,7.76,3.43,10.29,5.95,4.33,4.34,6.5,9.75,6.5,16.25,0,7.95-2.71,14.62-8.12,20.04-4.33,4.33-10.84,6.5-19.5,6.5h-42.79v-92.62Zm12.46,10.29v28.71h29.25c3.6,0,6.68-1.26,9.2-3.79,2.89-2.89,4.33-6.68,4.33-11.37,0-3.97-1.45-7.4-4.33-10.29-2.17-2.17-4.87-3.25-8.12-3.25h-30.32Zm0,39v33.04h27.62c5.42,0,9.56-1.44,12.46-4.33,3.25-3.25,4.87-7.22,4.87-11.92,0-5.05-1.45-9.02-4.33-11.91-3.25-3.25-7.58-4.88-13-4.88h-27.62Z"/>
      <path class="cls-1" d="m1536.89,160.48v11.92c-1.45-.35-3.43-.54-5.96-.54-5.41,0-10.48,2.35-15.16,7.04-3.98,3.98-6.69,8.12-8.12,12.46v30.87h-10.83v-60.66h10.83v15.16c1.8-2.89,3.79-5.42,5.96-7.58,5.77-5.77,13.54-8.66,23.29-8.66Z"/>
      <path class="cls-1" d="m1572.85,166.44c3.97-3.96,9.75-5.96,17.34-5.96,9.02,0,15.51,1.99,19.49,5.96,3.6,3.61,5.42,7.77,5.42,12.46v34.12c0,3.97,1.44,7.04,4.33,9.2h-13c-1.45-1.44-2.17-3.79-2.17-7.04-5.41,5.41-12.28,8.12-20.58,8.12-6.86,0-12.1-1.81-15.7-5.42-3.25-3.25-4.88-7.04-4.88-11.37,0-5.06,1.63-9.21,4.88-12.46,3.6-3.61,8.66-5.96,15.16-7.05,4.33-.72,8.12-1.63,11.38-2.71,4.68-1.09,7.94-2.17,9.74-3.25,0-2.89-1.08-5.41-3.25-7.58-2.17-2.17-5.24-3.25-9.21-3.25-5.06,0-8.66,1.08-10.83,3.25-1.45,1.45-2.53,3.43-3.25,5.95h-11.91c1.08-5.05,3.42-9.38,7.04-13Zm31.41,24.91c-2.17.73-4.15,1.27-5.96,1.63-6.14,1.45-10.83,2.53-14.08,3.25-2.89.73-5.07,1.81-6.51,3.25-1.81,1.81-2.71,3.79-2.71,5.96,0,2.53.9,4.7,2.71,6.5,1.09,1.09,3.43,1.63,7.05,1.63,6.14,0,11.19-1.98,15.16-5.96,2.53-2.52,3.97-4.33,4.33-5.42v-10.83Z"/>
      <path class="cls-1" d="m1664.05,222.22h-10.83v-60.66h10.83v10.83c6.5-7.94,13.36-11.92,20.58-11.92s13,2.17,17.34,6.5c2.89,2.9,4.33,6.33,4.33,10.29v44.95h-10.84v-41.7c0-3.25-1.08-5.96-3.25-8.12-2.17-2.17-5.24-3.25-9.21-3.25-3.61,0-7.23,1.81-10.83,5.42-5.41,5.42-8.12,11.2-8.12,17.33v30.33Z"/>
      <path class="cls-1" d="m1786.14,129.6h10.83v92.62h-10.83v-7.58c-3.98,5.78-9.4,8.66-16.25,8.66-7.58,0-13.54-2.17-17.88-6.5-6.5-6.51-9.75-14.8-9.75-24.92,0-10.83,2.89-19.13,8.67-24.91,4.68-4.68,10.29-7.04,16.79-7.04,7.94,0,14.08,3.07,18.42,9.2v-39.54Zm-26.54,44.42c-3.61,3.61-5.42,9.57-5.42,17.87s1.98,13.91,5.96,17.88c2.53,2.53,5.59,3.79,9.21,3.79,4.33,0,7.94-1.44,10.83-4.33,3.96-3.97,5.96-9.75,5.96-17.34s-2.17-13.54-6.5-17.87c-2.9-2.89-6.33-4.33-10.29-4.33-3.62,0-6.87,1.45-9.75,4.33Z"/>
      <path class="cls-1" d="m1834.01,130.14h10.84v14.08h-10.84v-14.08Zm0,31.42h10.84v60.66h-10.84v-60.66Z"/>
      <path class="cls-1" d="m1893.81,222.22h-10.83v-60.66h10.83v10.83c6.5-7.94,13.36-11.92,20.58-11.92s13,2.17,17.34,6.5c2.89,2.9,4.33,6.33,4.33,10.29v44.95h-10.84v-41.7c0-3.25-1.08-5.96-3.25-8.12-2.17-2.17-5.24-3.25-9.21-3.25-3.61,0-7.23,1.81-10.83,5.42-5.41,5.42-8.12,11.2-8.12,17.33v30.33Z"/>
      <path class="cls-1" d="m1980.14,166.44c3.97-3.96,9.02-5.96,15.17-5.96,5.77,0,10.83,1.81,15.16,5.42,3.6-3.6,7.94-5.42,13-5.42h4.88v10.29c-4.33-1.8-9.21-1.98-14.62-.54,2.52,3.25,3.79,7.04,3.79,11.37,0,6.51-1.99,11.75-5.96,15.71-3.61,3.61-8.85,5.42-15.71,5.42-3.61,0-7.41-.9-11.38-2.71-1.81,1.45-2.71,2.9-2.71,4.34,0,1.08.36,1.99,1.09,2.71,1.8,1.81,5.96,2.89,12.46,3.25,5.77.37,11.92.73,18.42,1.09,3.6.73,6.31,1.99,8.12,3.79,2.89,2.89,4.33,6.32,4.33,10.29,0,4.33-1.45,7.94-4.33,10.83-3.98,3.97-12.64,5.96-26,5.96-11.2,0-18.77-1.99-22.75-5.96-2.53-2.53-3.79-5.6-3.79-9.2,0-2.53.9-4.69,2.71-6.51,1.44-1.44,3.6-2.89,6.51-4.33-1.09-.72-2.35-1.8-3.79-3.25-1.81-1.81-2.71-4.15-2.71-7.05,0-3.6,2.71-7.04,8.12-10.29-3.97-3.96-5.96-8.66-5.96-14.08,0-6.13,1.99-11.18,5.96-15.16Zm6.51,52.54c-2.53.73-4.34,1.62-5.42,2.71-1.45,1.45-2.17,3.07-2.17,4.87s.72,3.43,2.17,4.88c2.17,2.17,6.86,3.25,14.08,3.25,9.74,0,15.88-1.27,18.42-3.79,1.44-1.45,2.17-2.89,2.17-4.33s-.55-2.71-1.63-3.79c-1.45-1.44-3.98-2.17-7.58-2.17-8.66-.35-15.35-.89-20.03-1.62Zm2.17-46.58c-2.53,2.53-3.79,5.6-3.79,9.2s1.08,6.51,3.25,8.67c2.17,2.17,4.69,3.25,7.58,3.25,3.25,0,5.77-.89,7.58-2.71,2.17-2.17,3.25-5.23,3.25-9.21,0-3.6-1.27-6.67-3.79-9.2-1.81-1.81-4.33-2.71-7.58-2.71-2.53,0-4.7.9-6.5,2.71Z"/>
      <path class="cls-1" d="m1405.88,301.41c4.33-4.33,9.2-6.5,14.62-6.5,6.14,0,11.01,1.81,14.62,5.41,3.97,3.98,5.96,8.85,5.96,14.62,0,6.51-2.17,11.92-6.5,16.25-3.25,3.25-7.94,6.33-14.08,9.21,9.75,13,17.69,21.31,23.83,24.91,2.17-3.97,3.25-9.75,3.25-17.34h11.38c-.37,8.31-2.35,16.25-5.96,23.83,4.33,2.89,8.3,4.87,11.91,5.96l-4.33,10.83c-2.53-.72-7.41-3.6-14.62-8.66-6.86,6.5-16.07,9.75-27.62,9.75-9.75,0-17.16-2.53-22.21-7.58-5.06-5.05-7.58-10.83-7.58-17.33,0-7.58,2.89-14.26,8.67-20.04,2.52-2.53,5.77-5.05,9.74-7.58-5.06-7.58-7.58-14.26-7.58-20.04,0-6.13,2.17-11.37,6.5-15.7Zm-5.42,63.37c0,3.97,1.44,7.41,4.33,10.29,3.25,3.25,7.76,4.87,13.54,4.87,8.3,0,14.8-2.17,19.49-6.5-9.02-7.94-17.7-17.51-25.99-28.71-1.81,1.08-3.61,2.53-5.42,4.33-3.98,3.98-5.96,9.2-5.96,15.71Zm13-57.41c-2.17,2.17-3.25,5.6-3.25,10.29,0,4.33,1.8,9.39,5.42,15.16,4.33-2.17,7.58-4.33,9.74-6.5,3.25-3.25,4.88-6.86,4.88-10.83,0-3.25-1.09-5.96-3.25-8.12-1.81-1.81-4.15-2.71-7.04-2.71-2.53,0-4.7.91-6.51,2.71Z"/>
      <path class="cls-1" d="m1555.52,295.99h32.5c10.84,0,20.04,3.79,27.63,11.38,7.94,7.94,11.91,19.86,11.91,35.74s-4.15,26.91-12.46,35.2c-6.86,6.87-15.89,10.29-27.08,10.29h-32.5v-92.62Zm12.46,10.29v72.03h19.49c6.86,0,12.46-2.17,16.79-6.5,6.86-6.86,10.29-16.43,10.29-28.71,0-13-3.25-22.75-9.75-29.25-5.06-5.05-10.83-7.58-17.33-7.58h-19.49Z"/>
      <path class="cls-1" d="m1672.73,334.45c5.05-5.05,11.55-7.58,19.49-7.58s14.08,2.71,19.5,8.12c5.05,5.06,7.58,12.82,7.58,23.29h-43.87c0,7.58,1.8,13.19,5.42,16.8,3.25,3.25,7.39,4.87,12.46,4.87s8.66-1.09,10.83-3.25c2.52-2.52,3.79-5.41,3.79-8.66h11.92c-1.45,6.5-3.79,11.38-7.05,14.62-4.7,4.7-11.2,7.05-19.49,7.05s-15.71-2.71-21.13-8.12c-5.78-5.77-8.66-13.54-8.66-23.29s3.07-17.68,9.21-23.83Zm8.12,5.96c-2.53,2.53-4.16,5.6-4.88,9.2h30.87c0-3.6-1.45-6.85-4.33-9.74-2.53-2.53-6.15-3.79-10.83-3.79-4.33,0-7.94,1.45-10.83,4.33Z"/>
      <path class="cls-1" d="m1760.14,333.36c4.33-4.33,10.47-6.5,18.42-6.5,8.66,0,14.98,1.99,18.95,5.96,3.6,3.61,5.42,7.58,5.42,11.92h-10.83c-.37-2.53-1.09-4.33-2.17-5.42-2.17-2.17-6.15-3.25-11.92-3.25-3.61,0-6.5,1.08-8.66,3.25-1.81,1.81-2.71,3.79-2.71,5.96,0,1.45.55,2.71,1.63,3.79,1.44,1.45,5.96,3.07,13.54,4.87,4.68,1.09,8.66,2.17,11.92,3.25,2.89,1.08,5.05,2.35,6.5,3.79,2.89,2.89,4.33,6.32,4.33,10.29,0,4.33-1.81,8.31-5.42,11.92-4.33,4.33-11.02,6.5-20.03,6.5s-15.71-2.17-20.04-6.5c-3.61-3.6-5.42-8.12-5.42-13.54h10.83c.36,3.25,1.27,5.6,2.71,7.04,2.52,2.53,6.31,3.79,11.37,3.79,6.14,0,10.29-1.08,12.46-3.25,1.44-1.44,2.17-3.25,2.17-5.42,0-1.44-.9-3.07-2.71-4.87-1.45-1.44-3.79-2.53-7.04-3.25-6.51-1.44-11.38-2.71-14.62-3.79-3.98-1.08-6.87-2.52-8.67-4.33-3.25-3.25-4.87-6.68-4.87-10.29,0-4.68,1.63-8.66,4.87-11.92Z"/>
      <path class="cls-1" d="m1841.05,296.53h10.84v14.08h-10.84v-14.08Zm0,31.42h10.84v60.66h-10.84v-60.66Z"/>
      <path class="cls-1" d="m1897.05,332.82c3.97-3.96,9.02-5.96,15.17-5.96,5.77,0,10.83,1.81,15.16,5.42,3.6-3.6,7.94-5.42,13-5.42h4.88v10.29c-4.33-1.8-9.21-1.98-14.62-.54,2.52,3.25,3.79,7.04,3.79,11.37,0,6.51-1.99,11.75-5.96,15.71-3.61,3.61-8.85,5.42-15.71,5.42-3.61,0-7.41-.9-11.38-2.71-1.81,1.45-2.71,2.9-2.71,4.34,0,1.08.36,1.99,1.09,2.71,1.8,1.81,5.96,2.89,12.46,3.25,5.77.37,11.92.73,18.42,1.09,3.6.73,6.31,1.99,8.12,3.79,2.89,2.89,4.33,6.32,4.33,10.29,0,4.33-1.45,7.94-4.33,10.83-3.98,3.97-12.64,5.96-26,5.96-11.2,0-18.77-1.99-22.75-5.96-2.53-2.53-3.79-5.6-3.79-9.2,0-2.53.9-4.69,2.71-6.51,1.44-1.44,3.6-2.89,6.51-4.33-1.09-.72-2.35-1.8-3.79-3.25-1.81-1.81-2.71-4.15-2.71-7.05,0-3.6,2.71-7.04,8.12-10.29-3.97-3.96-5.96-8.66-5.96-14.08,0-6.13,1.99-11.18,5.96-15.16Zm6.51,52.54c-2.53.73-4.34,1.62-5.42,2.71-1.45,1.45-2.17,3.07-2.17,4.87s.72,3.43,2.17,4.88c2.17,2.17,6.86,3.25,14.08,3.25,9.74,0,15.88-1.27,18.42-3.79,1.44-1.45,2.17-2.89,2.17-4.33s-.55-2.71-1.63-3.79c-1.45-1.44-3.98-2.17-7.58-2.17-8.66-.35-15.35-.89-20.03-1.62Zm2.17-46.58c-2.53,2.53-3.79,5.6-3.79,9.2s1.08,6.51,3.25,8.67c2.17,2.17,4.69,3.25,7.58,3.25,3.25,0,5.77-.89,7.58-2.71,2.17-2.17,3.25-5.23,3.25-9.21,0-3.6-1.27-6.67-3.79-9.2-1.81-1.81-4.33-2.71-7.58-2.71-2.53,0-4.7.9-6.5,2.71Z"/>
      <path class="cls-1" d="m1985.56,388.61h-10.83v-60.66h10.83v10.83c6.5-7.94,13.36-11.92,20.58-11.92s13,2.17,17.34,6.5c2.89,2.9,4.33,6.33,4.33,10.29v44.95h-10.84v-41.7c0-3.25-1.08-5.96-3.25-8.12s-5.24-3.25-9.21-3.25c-3.61,0-7.23,1.81-10.83,5.42-5.41,5.42-8.12,11.2-8.12,17.33v30.33Z"/>
    </g>
  </g>
  <g>
    <path class="cls-1" d="m2183.1,232.19l-.81,17.74c20.88,10.09,25.36,42.45,25.36,42.45,4.98,27.67-11.11,49.83-16.19,56.01,4.47,2.11,10.28,4.29,17.28,5.73,13.67-17.56,15.89-47.24,15.89-47.24,18.87,9.21,27.36,26.41,27.36,26.41.08,3.46-1.82,8.97-3.7,13.51l13.53,8.94c4.79-10.87,7.5-22.86,7.5-35.51,0-48.03-38.45-87.02-86.23-88.04Zm39.52,55.41c-.76-14.69-11.75-31.58-11.75-31.58,39.09,15.24,41.04,50.3,41.04,50.3-5.36-8.97-29.3-18.72-29.3-18.72Z"/>
    <path class="cls-1" d="m2181.2,408.36c31.99,0,59.92-17.11,75.36-42.61l-14.18-9.37c-19.37,12.74-49.45,0-49.45,0-27.01-10.19-37.67-36.5-40-43.24-5.77,3.68-10.5,8.09-13.87,11.68,7.72,21.11,32.71,38.71,32.71,38.71-17.59,11.47-36.7,9.94-36.7,9.94-3.1-1.75-6.96-6.41-9.94-10.42l-16.06,7.76c15.94,22.7,42.27,37.57,72.12,37.57Zm8.17-36.69c13,6.88,33.13,6.12,33.13,6.12-33.13,25.74-64.23,9.43-64.23,9.43,10.45,0,31.1-15.55,31.1-15.55Z"/>
    <path class="cls-1" d="m2143.9,311.29c22.72-18.11,51.01-13.62,57.77-12.2-.62-6.86-2.43-13.54-3.89-18.07-21.96-3.73-49.19,8.45-49.19,8.45-.85-20.98,10.29-36.62,10.29-36.62,2.72-1.56,7.65-2.46,12.19-3l.77-17.23c-.06,0-.12.02-.18.02-44.18,4.76-78.59,42.15-78.59,87.6,0,14.8,3.69,28.73,10.14,40.98l15.39-7.43c-1.04-23.16,25.3-42.48,25.3-42.48Zm-8.76-45.56c-5.35,8.98-2.56,34.67-2.56,34.67-12.57,7.65-22.21,25.34-22.21,25.34-5.16-41.64,24.77-60.01,24.77-60.01Z"/>
  </g>
</svg>